<?xml version="1.0" standalone="no"?>
<!DOCTYPE svg PUBLIC "-//W3C//DTD SVG 1.1//EN" "http://www.w3.org/Graphics/SVG/1.1/DTD/svg11.dtd" >
<svg xmlns="http://www.w3.org/2000/svg">
<metadata></metadata>
<defs>
<font id="straitregular" horiz-adv-x="1024" >
<font-face units-per-em="2048" ascent="1638" descent="-410" />
<missing-glyph horiz-adv-x="512" />
<glyph horiz-adv-x="2048" />
<glyph horiz-adv-x="2048" />
<glyph unicode="&#xd;" horiz-adv-x="681" />
<glyph unicode=" "  horiz-adv-x="512" />
<glyph unicode="&#x09;" horiz-adv-x="512" />
<glyph unicode="&#xa0;" horiz-adv-x="512" />
<glyph unicode="!" horiz-adv-x="602" d="M184 90q0 41 7.5 64.5t26 34t33.5 12.5t50 2t50.5 -2t33.5 -12.5t25.5 -34t7.5 -64.5t-7.5 -65.5t-25.5 -34.5t-33.5 -12.5t-50.5 -2.5t-50 2.5t-33.5 12.5t-26 34.5t-7.5 65.5zM209 1425h184l-24 -1058h-136z" />
<glyph unicode="&#x22;" horiz-adv-x="677" d="M92 1434h176l-32 -437h-113zM410 1434h176l-33 -437h-113z" />
<glyph unicode="#" horiz-adv-x="1214" d="M82 373l24 133h162l51 287h-163l24 133h162l72 397h143l-72 -397h338l72 397h143l-71 -397h166l-27 -133h-162l-51 -287h166l-27 -133h-164l-65 -373h-144l66 373h-338l-65 -373h-144l66 373h-162zM412 506h338l51 287h-338z" />
<glyph unicode="$" d="M123 51l37 127q164 -57 309 -57t202.5 53t57.5 162.5t-30.5 163t-129.5 75.5l-202 48q-145 35 -192.5 115.5t-47.5 244.5q0 319 317 358v195h129v-193q131 -10 281 -63l-37 -123q-154 43 -281.5 43t-186 -41t-58.5 -161.5t28.5 -168t122.5 -69.5l195 -47 q139 -33 201.5 -107t62.5 -240.5t-81 -269t-247 -119.5v-182h-131v182q-184 14 -319 74z" />
<glyph unicode="%" horiz-adv-x="1486" d="M104.5 931q-0.5 105 0.5 135t5.5 78t12.5 70.5t25.5 52t42 42t62.5 22.5t87 10t87 -10t63.5 -22.5t43 -42t25.5 -52t12 -70.5t5.5 -78t1.5 -93.5t-1.5 -93t-5.5 -77.5t-12 -70.5t-25.5 -52.5t-41.5 -44q-61 -31 -141.5 -31t-125.5 18.5t-69.5 43t-36.5 82.5 q-14 78 -14.5 183zM231 807q0 -76 48 -90q25 -6 64.5 -6t62 7t32.5 23q13 25 13 66v330q0 78 -48 92q-25 6 -64.5 6t-62 -7t-30.5 -24q-14 -25 -15 -67v-330zM518 0l359 1323h92l-359 -1323h-92zM907.5 314.5q-0.5 105.5 0.5 135t5.5 77.5t12.5 71t25.5 52.5t42 42 t62.5 22.5t87 10t87 -10t63.5 -22.5t43 -42t25.5 -52.5t12 -71t5 -77.5t1 -93t-1 -93.5t-5 -78t-12 -70.5t-25.5 -52t-42.5 -42.5q-61 -33 -141 -32.5t-125 19t-69.5 43t-36.5 81.5q-14 78 -14.5 183.5zM1034 190q0 -76 47 -88q25 -8 65 -8t62.5 7.5t32.5 23.5q12 24 12 65 v330q0 78 -47 90q-25 8 -64.5 8t-62 -7t-30.5 -23q-14 -25 -15 -68v-330z" />
<glyph unicode="&#x26;" horiz-adv-x="1040" d="M82 354q0 244 139 324l117 65l-45 58q-59 74 -82 139.5t-23 147t12.5 131t47.5 97.5t111.5 73.5t191.5 25.5t188.5 -25.5t108.5 -73.5t46 -96.5t11 -149.5t-25.5 -153.5t-134.5 -113.5l-163 -94l571 -709l-199 -27l-123 154q-80 -152 -389 -152q-272 0 -331 177 q-29 82 -29 202zM252 252q0 -33 24 -66q50 -65 179 -65q248 0 278 129l-299 373l-69 -39q-68 -37 -90.5 -70t-22.5 -76v-186zM358 1047q0 -57 60 -134l67 -84l170 99q49 29 64.5 52.5t15.5 63.5v113q0 29 -23.5 57.5t-64.5 42t-100.5 13.5t-100 -13.5t-57.5 -33.5 q-31 -35 -31 -66v-110z" />
<glyph unicode="'" horiz-adv-x="360" d="M92 1434h176l-32 -437h-113z" />
<glyph unicode="(" horiz-adv-x="696" d="M162 714.5q0 184.5 2 274.5t9 214t24.5 178.5t47 122t77.5 93.5q115 61 272 62l10 -133q-168 0 -221 -113q-27 -55 -35 -115.5t-8 -152.5v-860q0 -92 8 -152.5t35 -116.5q53 -113 221 -112l-10 -133q-158 0 -272 61q-47 27 -77 94.5t-47.5 121.5t-24.5 178t-9 214 t-2 274.5z" />
<glyph unicode=")" horiz-adv-x="696" d="M92 -96q168 0 221 112q27 55 35 116t8 153v860q0 92 -8 152.5t-35 115.5q-53 113 -221 113l10 133q158 0 273 -62q47 -27 76.5 -94t47 -121.5t24.5 -178.5t9.5 -214t2.5 -274.5t-2.5 -274.5t-9.5 -214t-24.5 -178t-47 -121.5t-76.5 -94.5q-115 -61 -273 -61z" />
<glyph unicode="*" horiz-adv-x="833" d="M82 1237l43 121l229 -76v242h127v-242l228 76l43 -119l-230 -78l142 -192l-103 -78l-145 192q-41 -63 -81 -117.5t-54 -74.5l-109 72l137 198z" />
<glyph unicode="+" d="M123 578v143h317v317h144v-317h317v-143h-317v-318h-144v318h-317z" />
<glyph unicode="," horiz-adv-x="491" d="M94 -229l84 211q-47 16 -47 108q0 80 33 98q27 14 73 14.5t61 -1.5t34 -13q33 -18 33 -98q0 -86 -68 -194l-111 -175z" />
<glyph unicode="-" horiz-adv-x="804" d="M82 547v133h641v-133h-641z" />
<glyph unicode="." horiz-adv-x="491" d="M131 90q0 41 7 64.5t25.5 34t34 12.5t50.5 2t50 -2t33.5 -12.5t26 -34t7.5 -64.5t-7.5 -65.5t-26 -34.5t-33.5 -12.5t-50 -2.5t-50.5 2.5t-34 12.5t-25.5 34.5t-7 65.5z" />
<glyph unicode="/" horiz-adv-x="720" d="M0 0l565 1434h156l-565 -1434h-156z" />
<glyph unicode="0" d="M96 661.5q0 92.5 1 136.5t4 118.5t10.5 111.5t21.5 92.5t34.5 82t51.5 60t73 48t97 26t123 11.5t123 -11.5t97 -26t73 -48t51.5 -60t34.5 -82t21.5 -92.5t10.5 -111.5t4 -118.5t1 -136.5t-1 -136.5t-4 -118.5t-10.5 -111.5t-21.5 -92.5t-34.5 -82t-51.5 -60t-73 -48 t-97 -26t-123 -11.5t-123 11.5t-97 26t-73 48t-51.5 60t-34.5 82t-21.5 92.5t-10.5 111.5t-4 118.5t-1 136.5zM276 340q0 -141 52 -176q66 -43 161 -43t140 13t68.5 29.5t35.5 51.5q15 47 15 125v643q0 141 -52 176q-66 43 -161 43t-140 -13t-68.5 -29.5t-35.5 -51.5 q-14 -47 -15 -125v-643z" />
<glyph unicode="1" d="M172 1167l459 181h35v-1205h225v-143h-639v143h237v996l-266 -103z" />
<glyph unicode="2" d="M123 0v156l469 542q66 76 93.5 142.5t27.5 169t-50.5 147.5t-179.5 45t-303 -53l-39 131q174 68 358.5 68t289 -89.5t104.5 -272.5t-166 -374l-405 -469h571v-143h-770z" />
<glyph unicode="3" d="M119 43l49 127q178 -41 281.5 -41t158 15.5t76 49t25.5 59.5t4 76t-4 81.5t-19 76.5q-29 88 -149 97l-252 18v127l225 19q113 8 137 98q20 66 20.5 134.5t-6 98t-26.5 60.5q-37 63 -170 63t-309 -53l-39 131q164 68 358.5 68t283.5 -96.5t89 -250.5q0 -225 -178 -307v-10 q117 -37 169 -110.5t52 -202.5q0 -391 -430 -391q-199 0 -346 63z" />
<glyph unicode="4" d="M61 324v129l293 878h164l-289 -864h418v258l51 176h113v-434h150v-143h-150v-324h-164v324h-586z" />
<glyph unicode="5" d="M123 43l49 127q178 -41 285.5 -41t159 16.5t72 54.5t24.5 64.5t4 74.5t-1 71.5t-10.5 62.5t-25.5 59q-45 55 -137 64l-289 22l-78 78v635h653v-143h-489v-432l213 -17q211 -16 285 -125q61 -94 61 -237q0 -78 -14.5 -141.5t-55.5 -124.5q-86 -131 -348 -131 q-205 0 -358 63z" />
<glyph unicode="6" d="M109 789q0 313 85 436t324 123q170 0 344 -68l-39 -131q-174 53 -301 53t-179 -43t-52 -137v-283q94 47 229 47t215 -29.5t117 -89t49 -121t12 -152.5t-14 -156.5t-53 -131.5q-80 -131 -328 -131q-102 0 -173 17.5t-116 71t-69.5 99.5t-36.5 159q-14 154 -14 467z M291 266q0 -145 225 -145q156 0 193 59q24 39 24 86v219q0 109 -92 144q-49 18 -145.5 18t-204.5 -29v-352z" />
<glyph unicode="7" d="M139 1188v143h701v-143q0 -193 -21.5 -321t-97.5 -279l-295 -588h-180l307 602q76 147 99.5 275.5t23.5 310.5h-537z" />
<glyph unicode="8" d="M104 977q0 86 15.5 143.5t56.5 112.5q80 115 340 115q401 0 402 -322q0 -297 -113 -360q80 -49 100 -152q12 -74 12.5 -156t-4 -122.5t-27 -95t-63.5 -87.5q-102 -78 -322 -78t-308.5 95.5t-88 275t51.5 242.5q27 33 69 51q-57 33 -84.5 94.5t-32 109.5t-4.5 134z M285 252q0 -90 121 -121q47 -10 110 -10q221 0 221 131v197q0 92 -143 118l-309 58v-373zM285 866q0 -92 143 -118l309 -58v381q0 131 -221 131q-166 0 -213 -74q-18 -26 -18 -57v-205z" />
<glyph unicode="9" d="M125 917.5q0 100.5 14.5 167t53.5 132.5q80 131 337 131q193 0 273 -78q43 -43 68.5 -92.5t37.5 -137.5q20 -129 20.5 -302t-0.5 -230t-6 -134t-17.5 -120t-32 -96.5t-49 -81t-72.5 -53.5q-76 -47 -207 -47.5t-235.5 20t-153.5 43.5l39 131q200 -47 315 -47 q238 0 238 172v266q-113 -45 -233 -45t-202 25.5t-121.5 84t-53 125t-13.5 167zM305 813q0 -106 94 -141q49 -16 136.5 -16.5t212.5 28.5v350q0 123 -103 154q-53 14 -131 14t-123 -15.5t-61 -47.5q-25 -48 -25 -105v-221z" />
<glyph unicode=":" horiz-adv-x="491" d="M131 90q0 41 7 64.5t25.5 34t34 12.5t50.5 2t50 -2t33.5 -12.5t26 -34t7.5 -64.5t-7.5 -65.5t-26 -34.5t-33.5 -12.5t-50 -2.5t-50.5 2.5t-34 12.5t-25.5 34.5t-7 65.5zM131 807q0 41 7 64.5t25.5 33.5t34 12.5t50.5 2.5t50 -2.5t33.5 -12.5t26 -33.5t7.5 -64.5 t-7.5 -65.5t-26 -35t-33.5 -12.5t-50 -2t-50.5 2t-34 12.5t-25.5 35t-7 65.5z" />
<glyph unicode=";" horiz-adv-x="491" d="M94 -229l84 211q-47 16 -47 108q0 80 33 98q27 14 73 14.5t61 -1.5t34 -13q33 -18 33 -98q0 -86 -68 -194l-111 -175zM131 807q0 41 7 64.5t25.5 33.5t34 12.5t50.5 2.5t50 -2.5t33.5 -12.5t26 -33.5t7.5 -64.5t-7.5 -65.5t-26 -35t-33.5 -12.5t-50 -2t-50.5 2t-34 12.5 t-25.5 35t-7 65.5z" />
<glyph unicode="&#x3c;" d="M123 578v143l778 328v-144l-620 -256l620 -256v-143z" />
<glyph unicode="=" d="M123 373v143h778v-143h-778zM123 782v144h778v-144h-778z" />
<glyph unicode="&#x3e;" d="M123 250v143l618 256l-618 256v144l778 -328v-143z" />
<glyph unicode="?" horiz-adv-x="739" d="M41 1415q137 43 264 43q201 0 287 -87t86 -278.5t-160 -373.5l-108 -125q-59 -70 -71.5 -104.5t-12.5 -122.5h-138q0 135 14.5 189t73.5 124l109 125q66 74 92.5 139.5t26.5 174t-37 151.5t-151.5 43t-243.5 -31zM147 90q0 41 7.5 64.5t26 34t33.5 12.5t50 2t50.5 -2 t34 -12.5t25.5 -34t7 -64.5t-7 -65.5t-25.5 -34.5t-34 -12.5t-50.5 -2.5t-50 2.5t-33.5 12.5t-26 34.5t-7.5 65.5z" />
<glyph unicode="@" horiz-adv-x="1449" d="M143 516q0 440 127 598q43 55 85 85t110 46q100 25 234.5 25t213 -7.5t155.5 -29t124 -57.5q102 -82 102 -254v-723q-65 -27 -192 -51.5t-228.5 -24.5t-159 26.5t-83.5 79.5q-47 86 -47 232q0 184 108 239q41 20 75 32.5t102.5 19t116.5 7.5t140 3v182q0 92 -65 137 q-47 35 -193 41q-51 2 -125.5 2t-110.5 -1t-80 -7t-69.5 -18.5t-55.5 -31.5t-45 -50t-30 -74q-27 -78 -26 -231v-389q0 -154 20.5 -214.5t35.5 -91t45 -50t55.5 -32t70.5 -18.5q57 -8 172 -8q248 0 561 104l41 -114q-315 -135 -602 -136q-270 0 -369 70q-111 80 -155 221 q-57 176 -58 463zM752 438q0 -100 30.5 -141t132 -41t211.5 20v369q-209 0 -248.5 -15.5t-70.5 -31.5q-55 -29 -55 -113v-47z" />
<glyph unicode="A" horiz-adv-x="1122" d="M72 0l340 1434h299l340 -1434h-181l-84 362h-450l-84 -362h-180zM369 506h383l-185 797h-12z" />
<glyph unicode="B" horiz-adv-x="1122" d="M184 0v1434h340q223 0 313.5 -93.5t90.5 -323t-144 -298.5q96 -35 140.5 -109.5t44.5 -210.5q0 -213 -97.5 -306t-336.5 -93h-351zM360 145h177q137 0 200 39q45 27 51 103q3 24 3 73v80q0 127 -33 156q-55 45 -114.5 52t-127.5 7h-156v-510zM360 772h142q133 0 194 39 q45 27 52 107q2 22 2 71v80q0 147 -50 180q-55 39 -178 39h-162v-516z" />
<glyph unicode="C" horiz-adv-x="980" d="M154 723q0 137 2 206.5t9 168t25.5 140.5t49 96.5t81 73.5t120 34.5t191.5 15.5t240 -37l-30 -133q-102 25 -201.5 25t-149 -8.5t-79 -29t-47 -38.5t-25.5 -57q-8 -49 -8 -142v-643q0 -164 33 -198q53 -55 114.5 -65.5t157.5 -10.5t223 33l39 -121q-137 -57 -293 -58 q-147 0 -204.5 20.5t-90 35t-58.5 49.5t-42 59.5t-27.5 79.5t-17.5 93t-8 118q-4 156 -4 293z" />
<glyph unicode="D" horiz-adv-x="1202" d="M184 0v1434h410q166 0 287 -45q51 -18 81.5 -68.5t49 -91.5t24.5 -135q12 -152 12 -366q0 -21 1 -42q-1 -181 -5 -260q-4 -88 -25.5 -193.5t-70.5 -142.5q-121 -90 -354 -90h-410zM360 152h236q141 0 215 47q51 33 57 129q2 31 2 92v598q0 61 -2 91t-15 71t-42 59 q-74 47 -215 47h-236v-1134z" />
<glyph unicode="E" horiz-adv-x="968" d="M184 0v1434h682l-20 -144h-486v-499h445v-144h-445v-504h527v-143h-703z" />
<glyph unicode="F" horiz-adv-x="886" d="M184 0v1434h662l-21 -144h-465v-499h424v-144h-424v-647h-176z" />
<glyph unicode="G" horiz-adv-x="1130" d="M154 723q0 137 2 206.5t9 168t25.5 140.5t49 96.5t79.5 74.5q131 49 288 49t306 -45l-30 -133q-137 33 -246 33t-163 -14.5t-83 -33t-42 -59.5t-15 -70.5t-2 -91.5v-649q0 -164 33 -198q53 -55 114.5 -65.5t147.5 -10.5t176 18v465h-195v123h359v-674 q-60 -33 -166.5 -55.5t-184 -22.5t-132 5.5t-97.5 20.5t-75.5 29.5t-58.5 49.5t-42 59.5t-27.5 79.5t-17.5 93t-8 118q-4 156 -4 293z" />
<glyph unicode="H" horiz-adv-x="1212" d="M184 0v1434h176v-643h492v643h176v-1434h-176v647h-492v-647h-176z" />
<glyph unicode="I" horiz-adv-x="544" d="M184 0v1434h176v-1434h-176z" />
<glyph unicode="J" horiz-adv-x="555" d="M53 -18v114q109 4 131 51q20 41 21 129v1158h176v-1112q0 -211 -59 -275q-68 -72 -201 -72q-31 0 -68 7z" />
<glyph unicode="K" horiz-adv-x="1060" d="M184 0v1434h176v-1434h-176zM414 717l377 717h186l-377 -717l379 -717h-188z" />
<glyph unicode="L" horiz-adv-x="864" d="M184 0v1434h176v-1291h463v-143h-639z" />
<glyph unicode="M" horiz-adv-x="1486" d="M168 0l43 1434h225l301 -906h13l301 906h225l43 -1434h-170l-27 1153h-12l-270 -805h-193l-270 805h-12l-27 -1153h-170z" />
<glyph unicode="N" horiz-adv-x="1222" d="M184 0v1434h258l412 -1196h12v1196h172v-1434h-258l-411 1196h-13v-1196h-172z" />
<glyph unicode="O" horiz-adv-x="1214" d="M154 723q0 137 2 206.5t9 168t25.5 140.5t49 96.5t79.5 74.5q131 49 276.5 49t230.5 -29.5t134.5 -70.5t71 -151.5t25.5 -201t4 -263.5t-2 -242.5t-9.5 -168t-25.5 -140t-49 -95t-81 -73t-121 -34t-152.5 -14.5t-136 5.5t-97.5 20.5t-75.5 29.5t-58.5 49.5t-42 59.5 t-27.5 79.5t-17.5 93t-8 118q-4 156 -4 293zM332 395q0 -164 33 -198q53 -55 114.5 -65.5t129 -10.5t115.5 8t77.5 28.5t47 39t23.5 57.5q11 49 11 141v643q0 164 -35 199q-51 55 -111.5 65.5t-128 10.5t-117 -8.5t-79 -29t-47 -38.5t-25.5 -57q-8 -49 -8 -142v-643z" />
<glyph unicode="P" horiz-adv-x="1050" d="M184 0v1434h310q246 0 350 -104.5t104 -358.5t-104.5 -358.5t-349.5 -104.5h-134v-508h-176zM360 653h136q141 0 215 47q51 33 57 131q2 30 2 91v98q0 61 -2 91t-15.5 71t-41.5 59q-74 47 -215 47h-136v-635z" />
<glyph unicode="Q" horiz-adv-x="1214" d="M154 727q0 133 2 202.5t9 168t25.5 140.5t49 96.5t79.5 74.5q131 49 276.5 49t230.5 -29.5t134.5 -70.5t71 -151.5t25.5 -201t4 -285t-3 -282.5t-21.5 -194.5t-57.5 -149.5q-100 -106 -295 -117v-10l12 -10l52 -211h-160l-43 231q-158 8 -212 43t-82 59.5t-46.5 80 t-28.5 96.5t-15 128t-6 148.5t-1 194.5zM332 395q0 -164 33 -198q53 -55 114.5 -65.5t129 -10.5t115.5 8t77.5 28.5t47 39t23.5 57.5q11 49 11 141v643q0 164 -35 199q-51 55 -111.5 65.5t-128 10.5t-117 -8.5t-79 -29t-47 -38.5t-25.5 -57q-8 -49 -8 -142v-643z" />
<glyph unicode="R" horiz-adv-x="1105" d="M184 0v1434h310q246 0 350 -99.5t104 -343.5q0 -168 -48 -265t-152 -138l235 -588h-180l-225 551q-27 -2 -84 -2h-134v-549h-176zM360 694h136q143 0 215 43q29 18 42 57.5t15 67t2 84.5v90q0 57 -2 85t-15.5 67t-41.5 57q-72 43 -215 43h-136v-594z" />
<glyph unicode="S" horiz-adv-x="1003" d="M113 51l37 127q164 -57 335 -57q121 0 177.5 59.5t56.5 182t-31 186t-129 78.5l-203 28q-143 23 -191 117t-48 284.5t99 296t274.5 105.5t351.5 -65l-37 -123q-154 43 -278 43t-181 -50.5t-57 -187.5t29.5 -196.5t119.5 -71.5l193 -29q131 -20 195.5 -107t64.5 -279.5 t-92 -304.5t-302 -112t-384 76z" />
<glyph unicode="T" horiz-adv-x="819" d="M20 1290v144h779v-144h-301v-1290h-176v1290h-302z" />
<glyph unicode="U" horiz-adv-x="1251" d="M174 715v719h176v-1039q0 -61 2 -91t15.5 -70.5t42 -59t83 -33t134.5 -14.5t133 14.5t81.5 33t42 59t15.5 70.5t2 91v1039h176v-719q0 -438 -37 -522q-16 -41 -47.5 -95.5t-81 -74t-120 -34t-167 -14.5t-166 14.5t-119.5 34t-81 74t-48 95t-26 139.5q-10 123 -10 383z " />
<glyph unicode="V" horiz-adv-x="1089" d="M72 1434h174l293 -1317h12l293 1317h174l-336 -1434h-274z" />
<glyph unicode="W" horiz-adv-x="1730" d="M113 1434h174l207 -1317h12l262 1317h195l262 -1317h12l207 1317h174l-242 -1434h-276l-230 1171h-12l-227 -1171h-277z" />
<glyph unicode="X" horiz-adv-x="1054" d="M61 0l369 717l-367 717h187l276 -543l279 543h186l-366 -717l368 -717h-188l-279 543l-276 -543h-189z" />
<glyph unicode="Y" horiz-adv-x="978" d="M51 1434h180l252 -781h13l252 781h180l-357 -973v-461h-163v461z" />
<glyph unicode="Z" horiz-adv-x="997" d="M82 0v121l645 1169h-604v144h792v-121l-643 -1170h633v-143h-823z" />
<glyph unicode="[" horiz-adv-x="696" d="M184 -205v1843h389v-143h-213v-1556h213v-144h-389z" />
<glyph unicode="\" horiz-adv-x="720" d="M0 1434h156l565 -1434h-156z" />
<glyph unicode="]" horiz-adv-x="696" d="M123 -61h213v1556h-213v143h389v-1843h-389v144z" />
<glyph unicode="^" d="M164 721l276 602h144l276 -602h-143l-205 444l-205 -444h-143z" />
<glyph unicode="_" horiz-adv-x="880" d="M61 -25h758v-133h-758v133z" />
<glyph unicode="`" horiz-adv-x="880" d="M193 1411l94 137l338 -278l-47 -70z" />
<glyph unicode="a" horiz-adv-x="1017" d="M143 313q0 184 107 240q43 20 76.5 32.5t102.5 18.5t117 7t140 3v154q0 106 -45 144t-164 38t-258 -45l-33 103q158 77 333 77h5q213 0 275 -86q33 -47 44 -98t11 -133v-768h-92l-27 100q-49 -55 -110.5 -84.5t-102.5 -35t-115.5 -5.5t-132 27t-86.5 80q-45 86 -45 231z M311 291q0 -100 31 -141t146.5 -41t156.5 46t41 132v211q-209 0 -249 -15.5t-70 -31.5q-55 -29 -56 -113v-47z" />
<glyph unicode="b" horiz-adv-x="1052" d="M184 35v1440h158v-480q86 80 267.5 80t235.5 -109.5t54 -383.5q0 -238 -8 -292t-16.5 -98.5t-21.5 -68t-32.5 -52t-45 -43t-58.5 -28.5q-59 -25 -194.5 -25t-338.5 60zM352 131q111 -23 206 -23h4q97 0 131 39t34 154v461q0 100 -30.5 141t-146.5 41t-157 -46t-41 -132 v-635z" />
<glyph unicode="c" horiz-adv-x="829" d="M154 508v123q0 109 8 156t16 89t22.5 63.5t34 50t47 43t62.5 28.5q54 27 175 26q2 1 4 1q124 0 237 -50l-33 -108q-88 23 -178 23q-2 -1 -4 -1q-92 0 -135 -12t-60.5 -43t-21.5 -55.5t-4 -75.5v-467q0 -193 196 -193q80 0 219 33l25 -110q-117 -53 -260 -54 q-98 0 -158.5 21.5t-86.5 48.5t-44 49.5t-29.5 65.5t-17.5 74.5t-8 89.5q-6 98 -6 184z" />
<glyph unicode="d" horiz-adv-x="1052" d="M154 451q0 256 8 310t16 98t21.5 67.5t33 52.5t45 43t58.5 29q58 25 168 25h4q113 0 203 -27v426h157v-1475h-92l-26 100q-39 -55 -101.5 -84.5t-106.5 -35t-108 -5.5q-172 0 -226 110t-54 366zM326 291q0 -100 30.5 -141t146 -41t156.5 46t41 132v635q-111 23 -206 23 q-2 -1 -4 -1q-97 0 -130.5 -39t-33.5 -153v-461z" />
<glyph unicode="e" horiz-adv-x="978" d="M154 508v123q0 109 8 156t16 89t22.5 63.5t34 50t47 43t61.5 29.5t79 20t128 5t154.5 -22.5t105.5 -70.5t45 -98t11 -114.5t-8 -106.5t-19.5 -73t-37 -54.5t-47 -39.5t-63.5 -27.5t-72.5 -17.5t-88.5 -10q-86 -6 -206 -7v-153q0 -106 45 -144t137 -38q170 0 305 57 l33 -102q-154 -90 -340 -91q-98 0 -158.5 21.5t-86.5 48.5t-44 49.5t-29.5 65.5t-17.5 74.5t-8 89.5q-6 98 -6 184zM324 563q209 0 248.5 15.5t70.5 31.5q55 29 55 113v47q0 100 -30.5 141t-146 41t-156.5 -46t-41 -132v-211z" />
<glyph unicode="f" horiz-adv-x="657" d="M102 944v90l142 29q6 274 80 354q68 76 200 76q57 0 150 -16l-12 -107q-47 6 -82 6q-90 0 -129 -52t-39 -189v-70h192v-121h-192v-944h-168v944h-142z" />
<glyph unicode="g" horiz-adv-x="1062" d="M154 530q0 285 30 367q39 111 101 143q92 47 241.5 47t352.5 -59v-1102q0 -82 -11.5 -134t-44.5 -99q-63 -90 -257.5 -90t-354.5 78l33 102q139 -45 258 -45t164 38t45 144v180q-86 -80 -267.5 -80t-235.5 117t-54 393zM326 334q0 -100 30.5 -141t146 -41t156.5 46 t41 132v602q-111 23 -206 23q-2 0 -4 -1q-97 0 -130.5 -38.5t-33.5 -153.5v-428z" />
<glyph unicode="h" horiz-adv-x="1058" d="M184 0v1475h158v-502q96 102 276 102q174 0 230 -104q47 -89 47 -234v-737h-168v760q0 100 -30.5 141t-146.5 41t-157 -46t-41 -132v-764h-168z" />
<glyph unicode="i" horiz-adv-x="536" d="M162 1346.5q0 56.5 6 78t23.5 30.5t32 11t45 2t45 -2t30.5 -12q31 -14 31 -70.5t-6.5 -78t-23.5 -30.5t-31.5 -11t-45 -2t-45 2t-30.5 10q-31 16 -31 72.5zM184 0v1065h168v-1065h-168z" />
<glyph unicode="j" horiz-adv-x="536" d="M-37 -369l37 119q59 -16 105.5 -16t62.5 35.5t16 119.5v1176h168v-1133q0 -201 -57 -262q-60 -67 -187 -67h-4q-78 0 -141 28zM162 1346.5q0 56.5 6 78t23.5 30.5t32 11t45 2t45 -2t30.5 -12q31 -14 31 -70.5t-6.5 -78t-23.5 -30.5t-31.5 -11t-45 -2t-45 2t-30.5 10 q-31 16 -31 72.5z" />
<glyph unicode="k" horiz-adv-x="962" d="M184 0v1475h168v-1475h-168zM401 565l306 500h178l-305 -500l321 -565h-178z" />
<glyph unicode="l" horiz-adv-x="536" d="M184 0v1475h168v-1475h-168z" />
<glyph unicode="m" horiz-adv-x="1540" d="M184 0v1065h92l27 -100q37 55 95.5 84.5t97.5 33.5t100 4q166 0 227 -112q81 112 281 112h4q170 0 223 -104q45 -90 45 -233v-750h-168v772q0 100 -28.5 141t-134 41t-143.5 -46t-38 -132v-776h-168v772q0 100 -28.5 141t-134 41t-143.5 -46t-38 -132v-776h-168z" />
<glyph unicode="n" horiz-adv-x="1058" d="M184 0v1065h92l27 -100q39 55 102.5 84.5t105.5 33.5t119 4t134 -26.5t84 -77.5q47 -88 47 -233v-750h-168v772q0 100 -30.5 141t-146.5 41t-157 -46t-41 -132v-776h-168z" />
<glyph unicode="o" horiz-adv-x="1050" d="M154 422v221q0 119 10 167t22.5 93t31 66.5t46 49.5t64.5 39t86 20t110.5 9t110.5 -9t86 -20t65.5 -39t47 -49.5t31 -66.5t18.5 -73.5t10 -90t4 -96.5v-221q0 -119 -10 -168t-22.5 -94t-31 -66.5t-47 -49.5t-65.5 -39t-86 -20.5t-110.5 -9.5t-110.5 9.5t-86 20.5 t-64.5 39t-46 49.5t-31 66.5t-18.5 74.5t-10 91t-4 96.5zM324 297q0 -51 4 -75.5t20.5 -56.5t60.5 -44t115.5 -12t114.5 12t59.5 44t20.5 56.5t4 75.5v469q0 51 -4 75.5t-20.5 56.5t-59.5 44t-114.5 12t-115.5 -12t-60.5 -44t-20.5 -56.5t-4 -75.5v-469z" />
<glyph unicode="p" horiz-adv-x="1052" d="M184 -373v1438h92l27 -100q39 55 102.5 84.5t105.5 33.5t107 4q174 0 227.5 -105t53.5 -390t-14.5 -340t-31.5 -101.5t-43 -69t-62 -44.5q-66 -37 -191 -37t-215 27v-400h-158zM352 154q113 -23 210 -23t131 39t34 154v448q0 100 -30.5 141t-146.5 41t-157 -46t-41 -132 v-622z" />
<glyph unicode="q" horiz-adv-x="1052" d="M154 483q0 297 14 352.5t31.5 101.5t43 68.5t62.5 43.5q65 39 210 39h3q148 -1 350 -60v-1401h-157v453q-86 -80 -268.5 -80t-235.5 105.5t-53 377.5zM326 313q0 -100 30.5 -141t146 -41t156.5 46t41 132v623q-111 23 -206 23q-2 0 -4 -1q-97 0 -130.5 -38.5 t-33.5 -153.5v-449z" />
<glyph unicode="r" horiz-adv-x="661" d="M184 0v1065h92l33 -125q150 145 357 147l-17 -147q-186 0 -297 -111v-829h-168z" />
<glyph unicode="s" horiz-adv-x="913" d="M123 43l33 102q181 -35 282 -35h2q100 0 143.5 40t43.5 121t-23.5 122t-97.5 51l-166 23q-121 16 -164 91t-43 216t83 227t226 86q188 0 318 -67l-31 -115q-166 39 -257 39t-133 -30.5t-42 -123t18.5 -127t94.5 -47.5l165 -22q111 -14 163.5 -82t52.5 -216.5t-79 -234.5 t-264.5 -86t-324.5 68z" />
<glyph unicode="t" horiz-adv-x="692" d="M102 944v90l146 31l92 184h76v-184h188v-121h-188v-688q0 -88 18.5 -125t69.5 -37t92 8l14 -102q-74 -25 -140.5 -25t-108.5 14.5t-64.5 35t-34.5 61.5q-14 55 -14 170v688h-146z" />
<glyph unicode="u" horiz-adv-x="1058" d="M164 313v752h168v-774q0 -100 30.5 -141t146.5 -41t157 46t41 132v778h167v-1065h-92l-26 100q-39 -55 -101.5 -84.5t-106.5 -35t-120 -5.5t-133 27t-86 80q-45 86 -45 231z" />
<glyph unicode="v" horiz-adv-x="929" d="M82 1065h166l211 -954h12l211 954h166l-248 -1065h-270z" />
<glyph unicode="w" horiz-adv-x="1427" d="M82 1065h166l170 -954h12l178 954h211l178 -954h13l170 954h166l-203 -1065h-254l-170 909h-12l-168 -909h-254z" />
<glyph unicode="x" horiz-adv-x="935" d="M82 0l291 545l-275 520h178l191 -363l192 363h179l-275 -520l291 -545h-178l-209 389l-207 -389h-178z" />
<glyph unicode="y" horiz-adv-x="929" d="M80 -369l37 119q55 -12 120.5 -12t113.5 36t71 128l22 98h-114l-248 1065h166l211 -954h12l211 954h166l-270 -1157q-35 -150 -112 -227.5t-245 -77.5q-78 0 -141 28z" />
<glyph unicode="z" horiz-adv-x="927" d="M123 0v111l483 821h-463v133h652v-111l-480 -821h490v-133h-682z" />
<glyph unicode="{" horiz-adv-x="696" d="M47 653v103q121 12 121 205l-4 124q0 326 85 450t345 124l10 -133q-168 0 -221 -113q-27 -55 -35 -115.5t-8 -221.5t-26.5 -244.5t-110.5 -110.5v-16q84 -29 110.5 -111t26.5 -241.5t8 -220t35 -116.5q53 -113 221 -112l-10 -133q-260 0 -345 124.5t-85 452.5l4 119 q0 174 -121 186z" />
<glyph unicode="|" horiz-adv-x="667" d="M246 -205v1843h176v-1843h-176z" />
<glyph unicode="}" horiz-adv-x="696" d="M92 -96q168 0 221 112q27 55 35 116t8 220.5t27 241.5t111 111v16q-84 27 -111 110.5t-27 244.5t-8 221.5t-35 115.5q-53 113 -221 113l10 133q260 0 345 -124t85 -450l-4 -124q0 -193 121 -205v-103q-121 -12 -121 -186l4 -119q0 -328 -85 -452.5t-345 -124.5z" />
<glyph unicode="~" d="M123 578v143q72 -63 161 -63.5t217 63t220 63.5t180 -63v-143q-80 61 -171 61t-219 -63.5t-224.5 -63.5t-163.5 66z" />
<glyph unicode="&#xa1;" horiz-adv-x="544" d="M156 971q0 41 7 65.5t25.5 34.5t34 12t50 2t50 -2t34 -12t25.5 -34.5t7 -65.5t-7 -64.5t-25.5 -34t-34 -12.5t-50 -2t-50 2t-34 12.5t-25.5 34t-7 64.5zM180 -365l25 1059h135l25 -1059h-185z" />
<glyph unicode="&#xa2;" d="M213 629q0 123 1 167t6 108.5t17.5 99t33 77.5t53.5 66q74 57 186 72v317h129v-311q129 -4 242 -49l-33 -109q-104 23 -211 23t-156 -12.5t-69.5 -43t-24.5 -55.5t-4 -76v-467q0 -193 225 -192q92 0 252 32l25 -110q-113 -47 -246 -53v-318h-129v322q-152 16 -207 90 q-33 41 -51.5 79t-26.5 111q-12 109 -12 232z" />
<glyph unicode="&#xa3;" d="M94 590v123h168q-4 51 -20.5 151.5t-16.5 139.5q0 160 94.5 252t269.5 92t347 -66l-37 -123q-154 43 -279.5 43t-178 -41t-52.5 -164q0 -31 14.5 -129t20.5 -155h358v-123h-352q0 -256 -88 -447h592v-143h-770v115q106 213 106 475h-176z" />
<glyph unicode="&#xa4;" d="M57 295l174 174q-14 49 -14 180t14 178l-174 177l101 100l176 -178q63 25 176 24.5t180 -22.5l176 176l101 -100l-174 -175q18 -47 18 -180t-18 -182l174 -172l-101 -100l-176 176q-59 -23 -174 -23t-182 23l-176 -176zM362 569q0 -78 66 -90q33 -8 87 -8t87 7t45 24 q19 24 19 67v158q0 43 -17 64q-29 35 -119 34.5t-123.5 -15.5t-39 -31.5t-5.5 -51.5v-158z" />
<glyph unicode="&#xa5;" d="M74 1323h180l252 -610h12l252 610h180l-264 -610h215v-123h-268l-39 -90v-94h307v-123h-307v-283h-164v283h-303v123h303v94l-39 90h-264v123h211z" />
<glyph unicode="&#xa6;" horiz-adv-x="667" d="M246 -205v711h176v-711h-176zM246 928v710h176v-710h-176z" />
<glyph unicode="&#xa7;" horiz-adv-x="1003" d="M113 -322l37 123q164 -53 310 -53t202.5 54.5t56.5 187.5q0 59 -8.5 98t-46 77t-105.5 46l-203 27q-143 18 -191 105t-48 236.5t49 235.5q-49 78 -49 259t100 282.5t274.5 101.5t350.5 -65l-37 -119q-162 39 -282 39t-177 -46t-57 -172t29.5 -179.5t119.5 -65.5l193 -27 q131 -18 195.5 -97t64.5 -235.5t-55 -254.5q55 -88 55 -253t-92 -272.5t-302 -107.5t-384 75zM289 608q0 -115 29.5 -168t119.5 -65l193 -27q45 -6 88 -22v139q0 59 -8.5 98t-46 77t-105.5 46l-203 27q-27 2 -67 14v-119z" />
<glyph unicode="&#xa8;" horiz-adv-x="880" d="M149.5 1346.5q0.5 56.5 6.5 78t23.5 30.5t31.5 11t45 2t45 -2t31 -12q31 -14 30.5 -70.5t-6.5 -78t-23.5 -30.5t-31.5 -11t-45 -2t-45 2t-31 10q-31 16 -30.5 72.5zM518 1346.5q0 56.5 6 78t23.5 30.5t32 11t45 2t45 -2t30.5 -12q31 -14 31 -70.5t-6 -78t-23.5 -30.5 t-32 -11t-45 -2t-45 2t-30.5 10q-31 16 -31 72.5z" />
<glyph unicode="&#xa9;" horiz-adv-x="1112" d="M102 940q0 70 1 102.5t4.5 90t11.5 84t23.5 68.5t38 61.5t56 45t78.5 35.5q113 27 242 27t218 -26.5t136 -59.5t70 -112.5t26 -136t3 -179.5t-3 -179t-26 -135t-70 -114q-119 -84 -358 -84q-233 0 -315 64q-35 25 -57.5 44t-38 61t-23.5 68.5t-11.5 83t-4.5 89t-1 102.5z M207 748q0 -63 6 -94t36 -71t104.5 -57.5t197.5 -17.5t197.5 17.5t104.5 57.5t36 70.5t6 94.5v387q0 63 -6 94t-36 70.5t-104.5 57t-197.5 17.5t-197.5 -17.5t-104.5 -57t-36 -70.5t-6 -94v-387zM348 940q0 94 2 137t14.5 97.5t38 76t71.5 37t111.5 15.5t149.5 -25l-20 -96 q-92 12 -136 12t-71 -15.5t-31 -34t-4 -61.5v-286q0 -53 12 -76q20 -37 87 -37t151 18l27 -86q-92 -39 -161 -38.5t-115 15.5t-71.5 36.5t-38 76t-14.5 97.5t-2 137z" />
<glyph unicode="&#xaa;" horiz-adv-x="825" d="M162 930q0 82 17.5 122t42 61.5t77.5 31.5q86 16 219 16v92q0 102 -112 103q-80 0 -191 -33l-27 78q115 57 241 57t169 -52t43 -163v-500h-63l-33 70q-66 -86 -185.5 -86t-158.5 60.5t-39 142.5zM287 940q0 -55 22.5 -83t87.5 -28q121 0 121 109v131q-174 0 -213 -39 q-18 -18 -18 -49v-41z" />
<glyph unicode="&#xab;" horiz-adv-x="901" d="M61 631l183 459l145 -25l-153 -434l153 -434l-145 -25zM471 631l182 459l146 -25l-154 -434l154 -434l-146 -25z" />
<glyph unicode="&#xac;" d="M123 578v143h778v-416h-135v273h-643z" />
<glyph unicode="&#xad;" horiz-adv-x="804" d="M82 547v133h641v-133h-641z" />
<glyph unicode="&#xae;" horiz-adv-x="1112" d="M102 940q0 70 1 102.5t4.5 90t11.5 84t23.5 68.5t38 61.5t56 45t78.5 35.5q113 27 242 27t218 -26.5t136 -59.5t70 -112.5t26 -136t3 -179.5t-3 -179t-26 -135t-70 -114q-119 -84 -358 -84q-233 0 -315 64q-35 25 -57.5 44t-38 61t-23.5 68.5t-11.5 83t-4.5 89t-1 102.5z M207 748q0 -63 6 -94t36 -71t104.5 -57.5t197.5 -17.5t197.5 17.5t104.5 57.5t36 70.5t6 94.5v387q0 63 -6 94t-36 70.5t-104.5 57t-197.5 17.5t-197.5 -17.5t-104.5 -57t-36 -70.5t-6 -94v-387zM365 592v698h149q139 0 198.5 -50t59.5 -171q0 -156 -104 -199l129 -278h-125 l-121 254h-64v-254h-122zM487 952h50q80 0 98 29q14 23 14 68v38q0 47 -12 66q-20 31 -100 31h-50v-232z" />
<glyph unicode="&#xaf;" horiz-adv-x="819" d="M164 1300v130h491v-130h-491z" />
<glyph unicode="&#xb0;" horiz-adv-x="737" d="M102 1157q0 72 2 104.5t15.5 80t40 66.5t78 34.5t129 15.5t130 -15.5t80 -34.5t41 -66.5t15.5 -80t2 -104.5t-2 -104.5t-15.5 -79.5t-41 -66.5t-80 -35t-130 -15.5t-129 15.5t-78 35t-40 66.5t-15.5 79.5t-2 104.5zM248 1077q0 -45 12 -63q20 -35 111 -35q86 0 104 31 q14 22 14 67v158q0 78 -51 92q-25 6 -68.5 6t-70.5 -7t-37 -23q-14 -23 -14 -68v-158z" />
<glyph unicode="&#xb1;" d="M123 0v143h778v-143h-778zM123 578v143h317v317h144v-317h317v-143h-317v-318h-144v318h-317z" />
<glyph unicode="&#xb2;" horiz-adv-x="686" d="M115 748v100l254 285q61 68 61 131t-23.5 82.5t-87 19.5t-169.5 -33l-29 88q119 51 218 51.5t159.5 -50t60.5 -149.5t-94 -206l-195 -215h289v-104h-444z" />
<glyph unicode="&#xb3;" horiz-adv-x="686" d="M111 1421q114 52 202 52q223 0 224 -195q0 -102 -74 -160q96 -45 96 -164q0 -217 -246 -217q-100 0 -198 41l28 88q121 -20 166 -20t71 9t36 30q14 27 14 61.5t-3 52t-20.5 35t-52.5 19.5l-149 10v86l133 8q70 4 70 106.5t-99 102.5q-61 0 -170 -33z" />
<glyph unicode="&#xb4;" horiz-adv-x="880" d="M254 1270l338 278l94 -137l-385 -211z" />
<glyph unicode="&#xb5;" horiz-adv-x="1056" d="M184 -373v1438h168v-774q0 -98 34 -140t152.5 -42t152.5 42t34 140v774h168v-752q0 -199 -81 -268.5t-249 -69.5t-225 58v-406h-154z" />
<glyph unicode="&#xb6;" horiz-adv-x="817" d="M82 823v176q0 92 10 130t23.5 74t32 52.5t47 38t67.5 29.5q100 25 203 25h168v-1348h-168v475q-199 0 -270 53q-29 23 -47.5 39.5t-32 52t-19.5 58t-10 71t-4 74.5z" />
<glyph unicode="&#xb7;" horiz-adv-x="514" d="M123 618q0 94 37 115q31 14 83 14.5t70.5 -2t38.5 -12.5q39 -20 39 -115q0 -94 -39 -116q-29 -16 -82 -16.5t-70.5 1.5t-39.5 15q-37 23 -37 116z" />
<glyph unicode="&#xb8;" horiz-adv-x="372" d="M20 -362l21 71q70 -16 104.5 -16t52 9t19.5 19.5t2 28t-2 26.5t-16.5 20t-40.5 11h-41l-31 50l21 143h84l-15 -115h25q88 0 118.5 -33.5t30.5 -99t-38 -107.5t-134 -42t-160 35z" />
<glyph unicode="&#xb9;" horiz-adv-x="686" d="M135 1374l262 99h41v-725h-129v577l-135 -51z" />
<glyph unicode="&#xba;" horiz-adv-x="845" d="M170 1094q0 86 2 127t14.5 97t36.5 81q61 61 195 61q133 0 196 -61q47 -43 54 -178q2 -41 2 -127t-2 -127t-14.5 -97.5t-38 -81t-74.5 -43t-122 -18.5t-122 18.5t-73.5 43t-37 81t-14.5 97.5t-2 127zM295 934q0 -53 22.5 -79t99.5 -26t99.5 26t22.5 79v317q0 55 -22.5 81 t-99.5 26t-99.5 -25.5t-22.5 -81.5v-317z" />
<glyph unicode="&#xbb;" horiz-adv-x="901" d="M102 197l154 434l-154 434l146 25l182 -459l-182 -459zM512 197l154 434l-154 434l145 25l183 -459l-183 -459z" />
<glyph unicode="&#xbc;" horiz-adv-x="1486" d="M125 1243l262 98h41v-725h-129v578l-135 -51zM465 0l358 1323h92l-358 -1323h-92zM848 166v88l160 461h125l-154 -443h182v121l33 103h86v-224h80v-106h-80v-166h-119v166h-313z" />
<glyph unicode="&#xbd;" horiz-adv-x="1486" d="M125 1243l262 98h41v-725h-129v578l-135 -51zM465 0l358 1323h92l-358 -1323h-92zM901 0v100l254 285q61 68 61.5 131.5t-23.5 82.5t-87.5 19t-169.5 -32l-29 88q119 51 218.5 51t160 -50t60.5 -149.5t-95 -206.5l-194 -215h289v-104h-445z" />
<glyph unicode="&#xbe;" horiz-adv-x="1486" d="M100 1290q115 51 203 51q223 0 223 -194q0 -102 -73 -160q96 -45 96 -164q0 -217 -246 -217q-102 0 -199 41l29 88q121 -20 166 -20t70.5 9t36.5 30q14 27 14 61.5t-3 52t-20.5 35t-52.5 19.5l-149 10v86l133 8q70 4 69.5 106.5t-98.5 102.5q-61 0 -170 -33zM510 0 l358 1323h93l-359 -1323h-92zM848 166v88l160 461h125l-154 -443h182v121l33 103h86v-224h80v-106h-80v-166h-119v166h-313z" />
<glyph unicode="&#xbf;" horiz-adv-x="739" d="M61 -27.5q0 191.5 160 373.5l109 125q59 70 71.5 104.5t12.5 122.5h137q0 -135 -14.5 -189t-73.5 -124l-109 -125q-66 -74 -92 -139.5t-26 -174t36.5 -151.5t152.5 -43t243 31l30 -133q-137 -43 -264 -43q-201 0 -287 87t-86 278.5zM358 975q0 41 7.5 65.5t26 34.5 t33.5 12.5t50 2.5t50.5 -2.5t34 -12.5t25.5 -34.5t7 -65.5t-7 -64.5t-25.5 -34t-34 -12.5t-50.5 -2t-50 2t-33.5 12.5t-26 34t-7.5 64.5z" />
<glyph unicode="&#xc0;" horiz-adv-x="1122" d="M72 0l340 1434h299l340 -1434h-181l-84 362h-450l-84 -362h-180zM344 1708l94 137l338 -278l-47 -70zM369 506h383l-185 797h-12z" />
<glyph unicode="&#xc1;" horiz-adv-x="1122" d="M72 0l340 1434h299l340 -1434h-181l-84 362h-450l-84 -362h-180zM344 1567l338 278l94 -137l-385 -211zM369 506h383l-185 797h-12z" />
<glyph unicode="&#xc2;" horiz-adv-x="1122" d="M72 0l340 1434h299l340 -1434h-181l-84 362h-450l-84 -362h-180zM287 1587l272 238l275 -238l-64 -76l-211 138l-211 -138zM369 506h383l-185 797h-12z" />
<glyph unicode="&#xc3;" horiz-adv-x="1122" d="M72 0l340 1434h299l340 -1434h-181l-84 362h-450l-84 -362h-180zM291 1659q59 59 95 77.5t74 18.5t104.5 -27.5t111.5 -27.5t108 41l45 -78q-59 -59 -95 -77.5t-73.5 -18.5t-104.5 27.5t-112 27.5t-108 -41zM369 506h383l-185 797h-12z" />
<glyph unicode="&#xc4;" horiz-adv-x="1122" d="M72 0l340 1434h299l340 -1434h-181l-84 362h-450l-84 -362h-180zM270 1643.5q0 56.5 6.5 78t23.5 30.5t31.5 11t45.5 2t45 -2t33 -10q29 -16 28.5 -72.5t-6.5 -78t-23.5 -30.5t-31.5 -11t-45 -2t-45.5 2t-32.5 12q-29 14 -29 70.5zM369 506h383l-185 797h-12zM639 1643.5 q0 56.5 6 78t23.5 30.5t32 11t45 2t45 -2t32.5 -10q29 -16 29 -72.5t-6 -78t-23.5 -30.5t-32 -11t-45 -2t-45 2t-32.5 12q-29 14 -29 70.5z" />
<glyph unicode="&#xc5;" horiz-adv-x="1122" d="M72 0l340 1434h299l340 -1434h-181l-84 362h-450l-84 -362h-180zM369 506h383l-185 797h-12zM383 1662.5q0 106.5 43 139.5t135 33t135 -33t43 -139.5t-43 -139t-135 -32.5t-135 32.5t-43 139zM494 1663q0 -45 16 -58.5t45 -13.5t41 2q33 8 33 61.5t-17.5 67t-50.5 13.5 t-50 -13.5t-17 -58.5z" />
<glyph unicode="&#xc6;" horiz-adv-x="1548" d="M0 0l563 1434h883l-21 -144h-485v-581h444v-144h-444v-422h526v-143h-702v565h-365l-219 -565h-180zM455 709h309v581h-84z" />
<glyph unicode="&#xc7;" horiz-adv-x="980" d="M154 573v142q0 440 36 522q18 43 49 97.5t81.5 73.5t120 34.5t191.5 15.5t240 -37l-30 -133q-102 25 -201.5 25t-149 -8.5t-79 -29t-47 -38.5t-25.5 -57q-8 -49 -8 -142v-643q0 -164 33 -198q53 -55 114.5 -65.5t157.5 -10.5t223 33l39 -121q-137 -57 -293 -58h-33 l-10 -90h25q88 0 118.5 -33.5t30.5 -99t-37.5 -107.5t-134 -42t-159.5 35l20 71q70 -16 104.5 -16t52 9t19.5 19.5t2 28t-2 26.5t-16.5 20t-40.5 11h-41l-31 50l16 125q-109 8 -151.5 34.5t-67 43t-43 52t-31 61.5t-20.5 80t-13 90t-7 109.5t-2 120.5z" />
<glyph unicode="&#xc8;" horiz-adv-x="968" d="M184 0v1434h682l-20 -144h-486v-499h445v-144h-445v-504h527v-143h-703zM330 1708l94 137l338 -278l-47 -70z" />
<glyph unicode="&#xc9;" horiz-adv-x="968" d="M184 0v1434h682l-20 -144h-486v-499h445v-144h-445v-504h527v-143h-703zM350 1567l338 278l94 -137l-385 -211z" />
<glyph unicode="&#xca;" horiz-adv-x="968" d="M184 0v1434h682l-20 -144h-486v-499h445v-144h-445v-504h527v-143h-703zM272 1587l273 238l274 -238l-63 -76l-211 138l-211 -138z" />
<glyph unicode="&#xcb;" horiz-adv-x="968" d="M184 0v1434h682l-20 -144h-486v-499h445v-144h-445v-504h527v-143h-703zM243.5 1643.5q0.5 56.5 6.5 78t23.5 30.5t31.5 11t45 2t45.5 -2t30.5 -10q31 -16 31 -72.5t-6.5 -78t-23.5 -30.5t-31.5 -11t-45.5 -2t-45 2t-31 12q-31 14 -30.5 70.5zM612 1643.5q0 56.5 6.5 78 t23.5 30.5t31.5 11t45.5 2t45 -2t31 -10q31 -16 30.5 -72.5t-6.5 -78t-23.5 -30.5t-31.5 -11t-45 -2t-45.5 2t-30.5 12q-31 14 -31 70.5z" />
<glyph unicode="&#xcc;" horiz-adv-x="544" d="M57 1708l95 137l337 -278l-47 -70zM184 0v1434h176v-1434h-176z" />
<glyph unicode="&#xcd;" horiz-adv-x="544" d="M57 1567l338 278l94 -137l-385 -211zM184 0v1434h176v-1434h-176z" />
<glyph unicode="&#xce;" horiz-adv-x="544" d="M0 1587l272 238l275 -238l-64 -76l-211 138l-211 -138zM184 0v1434h176v-1434h-176z" />
<glyph unicode="&#xcf;" horiz-adv-x="544" d="M-18.5 1643.5q0.5 56.5 6.5 78t23.5 30.5t31.5 11t45 2t45 -2t31 -10q31 -16 31 -72.5t-6.5 -78t-24 -30.5t-31.5 -11t-45 -2t-45 2t-31 12q-31 14 -30.5 70.5zM184 0v1434h176v-1434h-176zM350 1643.5q0 56.5 6 78t23.5 30.5t32 11t45 2t45 -2t30.5 -10q31 -16 31 -72.5 t-6 -78t-23.5 -30.5t-32 -11t-45 -2t-45 2t-30.5 12q-31 14 -31 70.5z" />
<glyph unicode="&#xd0;" horiz-adv-x="1202" d="M74 657v123h110v654h410q166 0 287 -45q51 -18 81.5 -68.5t49 -91.5t24.5 -135q12 -152 12.5 -366t-4 -302t-26 -193.5t-70.5 -142.5q-121 -90 -354 -90h-410v657h-110zM360 152h236q141 0 215 47q51 33 57 129q2 31 2 92v598q0 61 -2 91t-15 71t-42 59q-74 47 -215 47 h-236v-506h287v-123h-287v-505z" />
<glyph unicode="&#xd1;" horiz-adv-x="1222" d="M184 0v1434h258l412 -1196h12v1196h172v-1434h-258l-411 1196h-13v-1196h-172zM348 1659q59 59 95 77.5t74 18.5t104.5 -27.5t111.5 -27.5t109 41l45 -78q-60 -59 -95.5 -77.5t-73.5 -18.5t-104.5 27.5t-111.5 27.5t-109 -41z" />
<glyph unicode="&#xd2;" horiz-adv-x="1214" d="M154 723q0 137 2 206.5t9 168t25.5 140.5t49 96.5t79.5 74.5q131 49 276.5 49t230.5 -29.5t134.5 -70.5t71 -151.5t25.5 -201t4 -263.5t-2 -242.5t-9.5 -168t-25.5 -140t-49 -95t-81 -73t-121 -34t-152.5 -14.5t-136 5.5t-97.5 20.5t-75.5 29.5t-58.5 49.5t-42 59.5 t-27.5 79.5t-17.5 93t-8 118q-4 156 -4 293zM332 395q0 -164 33 -198q53 -55 114.5 -65.5t129 -10.5t115.5 8t77.5 28.5t47 39t23.5 57.5q11 49 11 141v643q0 164 -35 199q-51 55 -111.5 65.5t-128 10.5t-117 -8.5t-79 -29t-47 -38.5t-25.5 -57q-8 -49 -8 -142v-643z M391 1708l94 137l338 -278l-47 -70z" />
<glyph unicode="&#xd3;" horiz-adv-x="1214" d="M154 723q0 137 2 206.5t9 168t25.5 140.5t49 96.5t79.5 74.5q131 49 276.5 49t230.5 -29.5t134.5 -70.5t71 -151.5t25.5 -201t4 -263.5t-2 -242.5t-9.5 -168t-25.5 -140t-49 -95t-81 -73t-121 -34t-152.5 -14.5t-136 5.5t-97.5 20.5t-75.5 29.5t-58.5 49.5t-42 59.5 t-27.5 79.5t-17.5 93t-8 118q-4 156 -4 293zM332 395q0 -164 33 -198q53 -55 114.5 -65.5t129 -10.5t115.5 8t77.5 28.5t47 39t23.5 57.5q11 49 11 141v643q0 164 -35 199q-51 55 -111.5 65.5t-128 10.5t-117 -8.5t-79 -29t-47 -38.5t-25.5 -57q-8 -49 -8 -142v-643z M412 1567l338 278l94 -137l-385 -211z" />
<glyph unicode="&#xd4;" horiz-adv-x="1214" d="M154 723q0 137 2 206.5t9 168t25.5 140.5t49 96.5t79.5 74.5q131 49 276.5 49t230.5 -29.5t134.5 -70.5t71 -151.5t25.5 -201t4 -263.5t-2 -242.5t-9.5 -168t-25.5 -140t-49 -95t-81 -73t-121 -34t-152.5 -14.5t-136 5.5t-97.5 20.5t-75.5 29.5t-58.5 49.5t-42 59.5 t-27.5 79.5t-17.5 93t-8 118q-4 156 -4 293zM332 395q0 -164 33 -198q53 -55 114.5 -65.5t129 -10.5t115.5 8t77.5 28.5t47 39t23.5 57.5q11 49 11 141v643q0 164 -35 199q-51 55 -111.5 65.5t-128 10.5t-117 -8.5t-79 -29t-47 -38.5t-25.5 -57q-8 -49 -8 -142v-643z M334 1587l272 238l275 -238l-64 -76l-211 138l-211 -138z" />
<glyph unicode="&#xd5;" horiz-adv-x="1214" d="M154 723q0 137 2 206.5t9 168t25.5 140.5t49 96.5t79.5 74.5q131 49 276.5 49t230.5 -29.5t134.5 -70.5t71 -151.5t25.5 -201t4 -263.5t-2 -242.5t-9.5 -168t-25.5 -140t-49 -95t-81 -73t-121 -34t-152.5 -14.5t-136 5.5t-97.5 20.5t-75.5 29.5t-58.5 49.5t-42 59.5 t-27.5 79.5t-17.5 93t-8 118q-4 156 -4 293zM332 395q0 -164 33 -198q53 -55 114.5 -65.5t129 -10.5t115.5 8t77.5 28.5t47 39t23.5 57.5q11 49 11 141v643q0 164 -35 199q-51 55 -111.5 65.5t-128 10.5t-117 -8.5t-79 -29t-47 -38.5t-25.5 -57q-8 -49 -8 -142v-643z M338 1659q59 59 95 77.5t74 18.5t104.5 -27.5t111.5 -27.5t108 41l46 -78q-60 -59 -96 -77.5t-73.5 -18.5t-104 27.5t-112 27.5t-108.5 -41z" />
<glyph unicode="&#xd6;" horiz-adv-x="1214" d="M154 723q0 137 2 206.5t9 168t25.5 140.5t49 96.5t79.5 74.5q131 49 276.5 49t230.5 -29.5t134.5 -70.5t71 -151.5t25.5 -201t4 -263.5t-2 -242.5t-9.5 -168t-25.5 -140t-49 -95t-81 -73t-121 -34t-152.5 -14.5t-136 5.5t-97.5 20.5t-75.5 29.5t-58.5 49.5t-42 59.5 t-27.5 79.5t-17.5 93t-8 118q-4 156 -4 293zM315 1643.5q0 56.5 6.5 78t23.5 30.5t31.5 11t45.5 2t45 -2t33 -10q29 -16 28.5 -72.5t-6.5 -78t-23.5 -30.5t-31.5 -11t-45 -2t-45.5 2t-32.5 12q-29 14 -29 70.5zM332 395q0 -164 33 -198q53 -55 114.5 -65.5t129 -10.5 t115.5 8t77.5 28.5t47 39t23.5 57.5q11 49 11 141v643q0 164 -35 199q-51 55 -111.5 65.5t-128 10.5t-117 -8.5t-79 -29t-47 -38.5t-25.5 -57q-8 -49 -8 -142v-643zM684 1643.5q0 56.5 6 78t23.5 30.5t32 11t45 2t45 -2t32.5 -10q29 -16 29 -72.5t-6 -78t-23.5 -30.5 t-32 -11t-45 -2t-45 2t-32.5 12q-29 14 -29 70.5z" />
<glyph unicode="&#xd7;" d="M143 379l271 270l-271 271l99 98l270 -270l270 270l99 -98l-271 -271l271 -270l-99 -98l-270 270l-270 -270z" />
<glyph unicode="&#xd8;" horiz-adv-x="1214" d="M154 601q0 259 2 328.5t9 168t25.5 140.5t49 96.5t79.5 74.5q131 49 287 49q61 0 115 -6l18 84h92l-22 -98q98 -27 143 -78q27 -33 45.5 -60.5t30.5 -82t18.5 -94.5t10.5 -117q4 -129 4 -283t-2 -223.5t-9.5 -168t-25.5 -140t-49 -95t-82 -71.5q-123 -49 -287 -50 q-61 0 -114 7l-19 -93h-92l22 107q-90 20 -157 88q-37 37 -72 176q-20 82 -20 341zM332 395q0 -166 45 -211q23 -25 59 -39l254 1164q-49 4 -99 4t-99.5 -8.5t-79 -29t-47 -38.5t-25.5 -57q-8 -50 -8 -142v-643zM524 125q25 -4 88.5 -4t111.5 8t77.5 28.5t47 39t23.5 57.5 q11 49 11 141v643q0 166 -45 211q-23 23 -62 39z" />
<glyph unicode="&#xd9;" horiz-adv-x="1251" d="M174 715v719h176v-1039q0 -61 2 -91t15.5 -70.5t42 -59t83 -33t134.5 -14.5t133 14.5t81.5 33t42 59t15.5 70.5t2 91v1039h176v-719q0 -438 -37 -522q-16 -41 -47.5 -95.5t-81 -74t-120 -34t-167 -14.5t-166 14.5t-119.5 34t-81 74t-48 95t-26 139.5q-10 123 -10 383z M410 1708l94 137l338 -278l-47 -70z" />
<glyph unicode="&#xda;" horiz-adv-x="1251" d="M174 715v719h176v-1039q0 -61 2 -91t15.5 -70.5t42 -59t83 -33t134.5 -14.5t133 14.5t81.5 33t42 59t15.5 70.5t2 91v1039h176v-719q0 -438 -37 -522q-16 -41 -47.5 -95.5t-81 -74t-120 -34t-167 -14.5t-166 14.5t-119.5 34t-81 74t-48 95t-26 139.5q-10 123 -10 383z M471 1567l338 278l94 -137l-385 -211z" />
<glyph unicode="&#xdb;" horiz-adv-x="1251" d="M174 715v719h176v-1039q0 -61 2 -91t15.5 -70.5t42 -59t83 -33t134.5 -14.5t133 14.5t81.5 33t42 59t15.5 70.5t2 91v1039h176v-719q0 -438 -37 -522q-16 -41 -47.5 -95.5t-81 -74t-120 -34t-167 -14.5t-166 14.5t-119.5 34t-81 74t-48 95t-26 139.5q-10 123 -10 383z M352 1587l273 238l274 -238l-63 -76l-211 138l-211 -138z" />
<glyph unicode="&#xdc;" horiz-adv-x="1251" d="M174 715v719h176v-1039q0 -61 2 -91t15.5 -70.5t42 -59t83 -33t134.5 -14.5t133 14.5t81.5 33t42 59t15.5 70.5t2 91v1039h176v-719q0 -438 -37 -522q-16 -41 -47.5 -95.5t-81 -74t-120 -34t-167 -14.5t-166 14.5t-119.5 34t-81 74t-48 95t-26 139.5q-10 123 -10 383z M334 1643.5q0 56.5 6 78t23.5 30.5t32 11t45 2t45 -2t30.5 -10q31 -16 31 -72.5t-6 -78t-23.5 -30.5t-32 -11t-45 -2t-45 2t-30.5 12q-31 14 -31 70.5zM702 1643.5q0 56.5 6.5 78t24 30.5t31.5 11t45 2t45 -2t31 -10q31 -16 30.5 -72.5t-6.5 -78t-23.5 -30.5t-31.5 -11 t-45 -2t-45 2t-31 12q-31 14 -31 70.5z" />
<glyph unicode="&#xdd;" horiz-adv-x="978" d="M51 1434h180l252 -781h13l252 781h180l-357 -973v-461h-163v461zM313 1567l338 278l94 -137l-385 -211z" />
<glyph unicode="&#xde;" horiz-adv-x="1050" d="M184 0v1434h176v-254h134q246 0 350 -104.5t104 -358.5t-104.5 -358.5t-349.5 -104.5h-134v-254h-176zM360 399h136q141 0 215 47q51 33 57 132q2 29 2 90v98q0 61 -2 91t-15.5 71t-41.5 59q-74 47 -215 47h-136v-635z" />
<glyph unicode="&#xdf;" horiz-adv-x="1212" d="M102 944v90l142 29q2 113 16 182.5t53 130.5q74 117 322 117q238 0 319 -109q29 -37 43.5 -66.5t22.5 -82.5q8 -68 8 -181.5t-44 -178t-136 -105.5v-12q121 -37 179 -123t58 -254q0 -223 -89 -314.5t-300 -91.5q-123 0 -221 52l39 112q86 -31 177 -30.5t131 11.5t59.5 50 t22.5 77t3 104.5t-1 90t-5 66.5t-16.5 69.5t-32.5 57.5q-37 57 -129 65l-209 21v119h164q113 0 141 53q12 25 19.5 43t9.5 61q4 86 4 149.5t-4 88.5t-22.5 56.5t-65.5 44t-127 12.5t-127 -12.5t-66.5 -44t-23.5 -56.5t-4 -76v-1159h-168v944h-142z" />
<glyph unicode="&#xe0;" horiz-adv-x="1017" d="M143 313q0 184 107 240q43 20 76.5 32.5t102.5 18.5t117 7t140 3v154q0 106 -45 144t-164 38t-258 -45l-33 103q160 78 338 77q213 0 275 -86q33 -47 44 -98t11 -133v-768h-92l-27 100q-49 -55 -110.5 -84.5t-102.5 -35t-115.5 -5.5t-132 27t-86.5 80q-45 86 -45 231z M293 1411l94 137l338 -278l-47 -70zM311 291q0 -100 31 -141t146.5 -41t156.5 46t41 132v211q-209 0 -249 -15.5t-70 -31.5q-55 -29 -56 -113v-47z" />
<glyph unicode="&#xe1;" horiz-adv-x="1017" d="M143 313q0 184 107 240q43 20 76.5 32.5t102.5 18.5t117 7t140 3v154q0 106 -45 144t-164 38t-258 -45l-33 103q160 78 338 77q213 0 275 -86q33 -47 44 -98t11 -133v-768h-92l-27 100q-49 -55 -110.5 -84.5t-102.5 -35t-115.5 -5.5t-132 27t-86.5 80q-45 86 -45 231z M311 291q0 -100 31 -141t146.5 -41t156.5 46t41 132v211q-209 0 -249 -15.5t-70 -31.5q-55 -29 -56 -113v-47zM354 1270l338 278l94 -137l-385 -211z" />
<glyph unicode="&#xe2;" horiz-adv-x="1017" d="M143 313q0 184 107 240q43 20 76.5 32.5t102.5 18.5t117 7t140 3v154q0 106 -45 144t-164 38t-258 -45l-33 103q160 78 338 77q213 0 275 -86q33 -47 44 -98t11 -133v-768h-92l-27 100q-49 -55 -110.5 -84.5t-102.5 -35t-115.5 -5.5t-132 27t-86.5 80q-45 86 -45 231z M256 1311l272 237l275 -237l-64 -76l-211 137l-211 -137zM311 291q0 -100 31 -141t146.5 -41t156.5 46t41 132v211q-209 0 -249 -15.5t-70 -31.5q-55 -29 -56 -113v-47z" />
<glyph unicode="&#xe3;" horiz-adv-x="1017" d="M143 313q0 184 107 240q43 20 76.5 32.5t102.5 18.5t117 7t140 3v154q0 106 -45 144t-164 38t-258 -45l-33 103q160 78 338 77q213 0 275 -86q33 -47 44 -98t11 -133v-768h-92l-27 100q-49 -55 -110.5 -84.5t-102.5 -35t-115.5 -5.5t-132 27t-86.5 80q-45 86 -45 231z M281 1382q59 59 95 78t73.5 19t104.5 -28t112 -28t108 41l45 -78q-59 -59 -95 -77.5t-74 -18.5t-104.5 28t-111.5 28t-108 -41zM311 291q0 -100 31 -141t146.5 -41t156.5 46t41 132v211q-209 0 -249 -15.5t-70 -31.5q-55 -29 -56 -113v-47z" />
<glyph unicode="&#xe4;" horiz-adv-x="1017" d="M143 313q0 184 107 240q43 20 76.5 32.5t102.5 18.5t117 7t140 3v154q0 106 -45 144t-164 38t-258 -45l-33 103q160 78 338 77q213 0 275 -86q33 -47 44 -98t11 -133v-768h-92l-27 100q-49 -55 -110.5 -84.5t-102.5 -35t-115.5 -5.5t-132 27t-86.5 80q-45 86 -45 231z M237.5 1346.5q0.5 56.5 6.5 78t23.5 30.5t31.5 11t45 2t45 -2t33 -12q29 -14 29 -70.5t-6.5 -78t-24 -30.5t-31.5 -11t-45 -2t-45 2t-33 10q-29 16 -28.5 72.5zM311 291q0 -100 31 -141t146.5 -41t156.5 46t41 132v211q-209 0 -249 -15.5t-70 -31.5q-55 -29 -56 -113v-47z M606 1346.5q0 56.5 6 78t23.5 30.5t32 11t45 2t45 -2t33.5 -12q29 -14 28.5 -70.5t-6.5 -78t-23.5 -30.5t-32 -11t-45 -2t-45 2t-32.5 10q-29 16 -29 72.5z" />
<glyph unicode="&#xe5;" horiz-adv-x="1017" d="M143 313q0 184 107 240q43 20 76.5 32.5t102.5 18.5t117 7t140 3v154q0 106 -45 144t-164 38t-258 -45l-33 103q160 78 338 77q213 0 275 -86q33 -47 44 -98t11 -133v-768h-92l-27 100q-49 -55 -110.5 -84.5t-102.5 -35t-115.5 -5.5t-132 27t-86.5 80q-45 86 -45 231z M311 291q0 -100 31 -141t146.5 -41t156.5 46t41 132v211q-209 0 -249 -15.5t-70 -31.5q-55 -29 -56 -113v-47zM371 1386.5q0 106.5 43 139.5t135 33t135 -33t43 -139.5t-43 -139.5t-135 -33t-135 33t-43 139.5zM481 1386.5q0 -45.5 16.5 -58.5t45 -13t41.5 4q33 8 32.5 60.5 t-17.5 65.5t-50 13t-50.5 -13t-17.5 -58.5z" />
<glyph unicode="&#xe6;" horiz-adv-x="1509" d="M143 301q0 152 90 223q70 53 263 62q68 4 190 4v180q0 106 -45 144t-164 38t-258 -45l-33 103q160 78 342.5 77.5t257.5 -75.5q82 76 286 75.5t267 -88.5q35 -47 46.5 -95t11.5 -122.5t-14.5 -128t-51.5 -86t-74.5 -52t-109.5 -28.5q-106 -14 -293 -14v-192 q0 -100 47 -135t135 -35q170 0 305 57l33 -102q-154 -90 -340 -91q-223 0 -293 134q-94 -133 -307 -134q-174 0 -232.5 84t-58.5 242zM311 291q0 -100 31 -141t146.5 -41t156.5 46t41 132v186q-211 0 -250 -13.5t-69 -29.5q-55 -27 -56 -98v-41zM854 590q295 0 348 61 q27 29 27 78v41q0 100 -31 141t-144.5 41t-156.5 -43t-43 -121v-198z" />
<glyph unicode="&#xe7;" horiz-adv-x="829" d="M154 475v156q0 109 8 156t16 89t22.5 63.5t34 50t47 43t62.5 28.5q55 27 179 26.5t237 -49.5l-33 -108q-90 23 -182 22.5t-135 -12.5t-60.5 -43t-21.5 -55.5t-4 -75.5v-467q0 -193 196 -193q80 0 219 33l25 -110q-117 -53 -266 -54l-11 -90h25q88 0 119 -33.5t31 -99 t-38 -107.5t-134.5 -42t-159.5 35l20 71q70 -16 104.5 -16t52 9t19.5 19.5t2 28t-2 26.5t-16 20t-41 11h-41l-31 50l17 125q-131 16 -183 92q-29 41 -45 77.5t-22 110.5q-10 92 -10 213z" />
<glyph unicode="&#xe8;" horiz-adv-x="978" d="M154 508v123q0 109 8 156t16 89t22.5 63.5t34 50t47 43t61.5 29.5t79 20t128 5t154.5 -22.5t105.5 -70.5t45 -98t11 -114.5t-8 -106.5t-19.5 -73t-37 -54.5t-47 -39.5t-63.5 -27.5t-72.5 -17.5t-88.5 -10q-86 -6 -206 -7v-153q0 -106 45 -144t137 -38q170 0 305 57 l33 -102q-154 -90 -340 -91q-98 0 -158.5 21.5t-86.5 48.5t-44 49.5t-29.5 65.5t-17.5 74.5t-8 89.5q-6 98 -6 184zM272 1411l95 137l338 -278l-48 -70zM324 563q209 0 248.5 15.5t70.5 31.5q55 29 55 113v47q0 100 -30.5 141t-146 41t-156.5 -46t-41 -132v-211z" />
<glyph unicode="&#xe9;" horiz-adv-x="978" d="M154 508v123q0 109 8 156t16 89t22.5 63.5t34 50t47 43t61.5 29.5t79 20t128 5t154.5 -22.5t105.5 -70.5t45 -98t11 -114.5t-8 -106.5t-19.5 -73t-37 -54.5t-47 -39.5t-63.5 -27.5t-72.5 -17.5t-88.5 -10q-86 -6 -206 -7v-153q0 -106 45 -144t137 -38q170 0 305 57 l33 -102q-154 -90 -340 -91q-98 0 -158.5 21.5t-86.5 48.5t-44 49.5t-29.5 65.5t-17.5 74.5t-8 89.5q-6 98 -6 184zM324 563q209 0 248.5 15.5t70.5 31.5q55 29 55 113v47q0 100 -30.5 141t-146 41t-156.5 -46t-41 -132v-211zM336 1270l338 278l94 -137l-385 -211z" />
<glyph unicode="&#xea;" horiz-adv-x="978" d="M154 508v123q0 109 8 156t16 89t22.5 63.5t34 50t47 43t61.5 29.5t79 20t128 5t154.5 -22.5t105.5 -70.5t45 -98t11 -114.5t-8 -106.5t-19.5 -73t-37 -54.5t-47 -39.5t-63.5 -27.5t-72.5 -17.5t-88.5 -10q-86 -6 -206 -7v-153q0 -106 45 -144t137 -38q170 0 305 57 l33 -102q-154 -90 -340 -91q-98 0 -158.5 21.5t-86.5 48.5t-44 49.5t-29.5 65.5t-17.5 74.5t-8 89.5q-6 98 -6 184zM258 1311l272 237l275 -237l-64 -76l-211 137l-211 -137zM324 563q209 0 248.5 15.5t70.5 31.5q55 29 55 113v47q0 100 -30.5 141t-146 41t-156.5 -46 t-41 -132v-211z" />
<glyph unicode="&#xeb;" horiz-adv-x="978" d="M154 508v123q0 109 8 156t16 89t22.5 63.5t34 50t47 43t61.5 29.5t79 20t128 5t154.5 -22.5t105.5 -70.5t45 -98t11 -114.5t-8 -106.5t-19.5 -73t-37 -54.5t-47 -39.5t-63.5 -27.5t-72.5 -17.5t-88.5 -10q-86 -6 -206 -7v-153q0 -106 45 -144t137 -38q170 0 305 57 l33 -102q-154 -90 -340 -91q-98 0 -158.5 21.5t-86.5 48.5t-44 49.5t-29.5 65.5t-17.5 74.5t-8 89.5q-6 98 -6 184zM219 1346.5q0 56.5 6 78t23.5 30.5t32 11t45 2t45 -2t30.5 -12q31 -14 31 -70.5t-6 -78t-23.5 -30.5t-32 -11t-45 -2t-45 2t-30.5 10q-31 16 -31 72.5z M324 563q209 0 248.5 15.5t70.5 31.5q55 29 55 113v47q0 100 -30.5 141t-146 41t-156.5 -46t-41 -132v-211zM587.5 1346.5q0.5 56.5 6.5 78t23.5 30.5t32 11t45 2t45 -2t30.5 -12q31 -14 31 -70.5t-6.5 -78t-23.5 -30.5t-31.5 -11t-45 -2t-45 2t-31.5 10q-31 16 -30.5 72.5z " />
<glyph unicode="&#xec;" horiz-adv-x="536" d="M53 1411l94 137l338 -278l-47 -70zM184 0v1065h168v-1065h-168z" />
<glyph unicode="&#xed;" horiz-adv-x="536" d="M74 1270l338 278l94 -137l-385 -211zM184 0v1065h168v-1065h-168z" />
<glyph unicode="&#xee;" horiz-adv-x="536" d="M-4 1311l272 237l275 -237l-64 -76l-211 137l-211 -137zM184 0v1065h168v-1065h-168z" />
<glyph unicode="&#xef;" horiz-adv-x="536" d="M-23 1346.5q0 56.5 6.5 78t24 30.5t31.5 11t45 2t45 -2t31 -12q31 -14 30.5 -70.5t-6.5 -78t-23.5 -30.5t-31.5 -11t-45 -2t-45 2t-31 10q-31 16 -31 72.5zM184 0v1065h168v-1065h-168zM346 1346.5q0 56.5 6 78t23.5 30.5t32 11t45 2t45 -2t30.5 -12q31 -14 31 -70.5 t-6 -78t-23.5 -30.5t-32 -11t-45 -2t-45 2t-30.5 10q-31 16 -31 72.5z" />
<glyph unicode="&#xf0;" horiz-adv-x="1050" d="M154 389v195q0 115 7 149.5t16 75.5t22.5 59.5t34 46t47 41t63.5 27.5q61 23 183 23t204 -33q-4 131 -35 217l-184 -94l-61 118l176 91q-72 84 -203 133l55 121q190 -74 285 -185l197 101l61 -119l-186 -96q61 -133 61 -334v-537q0 -109 -10 -155t-22.5 -88t-31 -61 t-47 -45t-65.5 -37t-86 -19.5t-110.5 -8.5t-110.5 8.5t-86 19.5t-64.5 37t-46 45t-31 61t-18.5 70t-10 84t-4 89zM324 297q0 -51 4 -75.5t20.5 -56.5t60.5 -44t115.5 -12t114.5 12t59.5 44t20.5 56.5t4 75.5v387q0 51 -4 75.5t-20.5 56.5t-59.5 44t-114.5 12t-115.5 -12 t-60.5 -44t-20.5 -56.5t-4 -75.5v-387z" />
<glyph unicode="&#xf1;" horiz-adv-x="1058" d="M184 0v1065h92l27 -100q39 55 102.5 84.5t105.5 33.5t119 4t134 -26.5t84 -77.5q47 -88 47 -233v-750h-168v772q0 100 -30.5 141t-146.5 41t-157 -46t-41 -132v-776h-168zM281 1382q59 59 95 78t73.5 19t104.5 -28t112 -28t108 41l45 -78q-59 -59 -95 -77.5t-74 -18.5 t-104.5 28t-111.5 28t-108 -41z" />
<glyph unicode="&#xf2;" horiz-adv-x="1050" d="M154 422v221q0 119 10 167t22.5 93t31 66.5t46 49.5t64.5 39t86 20t110.5 9t110.5 -9t86 -20t65.5 -39t47 -49.5t31 -66.5t18.5 -73.5t10 -90t4 -96.5v-221q0 -119 -10 -168t-22.5 -94t-31 -66.5t-47 -49.5t-65.5 -39t-86 -20.5t-110.5 -9.5t-110.5 9.5t-86 20.5 t-64.5 39t-46 49.5t-31 66.5t-18.5 74.5t-10 91t-4 96.5zM309 1411l94 137l338 -278l-47 -70zM324 297q0 -51 4 -75.5t20.5 -56.5t60.5 -44t115.5 -12t114.5 12t59.5 44t20.5 56.5t4 75.5v469q0 51 -4 75.5t-20.5 56.5t-59.5 44t-114.5 12t-115.5 -12t-60.5 -44t-20.5 -56.5 t-4 -75.5v-469z" />
<glyph unicode="&#xf3;" horiz-adv-x="1050" d="M154 422v221q0 119 10 167t22.5 93t31 66.5t46 49.5t64.5 39t86 20t110.5 9t110.5 -9t86 -20t65.5 -39t47 -49.5t31 -66.5t18.5 -73.5t10 -90t4 -96.5v-221q0 -119 -10 -168t-22.5 -94t-31 -66.5t-47 -49.5t-65.5 -39t-86 -20.5t-110.5 -9.5t-110.5 9.5t-86 20.5 t-64.5 39t-46 49.5t-31 66.5t-18.5 74.5t-10 91t-4 96.5zM324 297q0 -51 4 -75.5t20.5 -56.5t60.5 -44t115.5 -12t114.5 12t59.5 44t20.5 56.5t4 75.5v469q0 51 -4 75.5t-20.5 56.5t-59.5 44t-114.5 12t-115.5 -12t-60.5 -44t-20.5 -56.5t-4 -75.5v-469zM350 1270l338 278 l94 -137l-385 -211z" />
<glyph unicode="&#xf4;" horiz-adv-x="1050" d="M154 422v221q0 119 10 167t22.5 93t31 66.5t46 49.5t64.5 39t86 20t110.5 9t110.5 -9t86 -20t65.5 -39t47 -49.5t31 -66.5t18.5 -73.5t10 -90t4 -96.5v-221q0 -119 -10 -168t-22.5 -94t-31 -66.5t-47 -49.5t-65.5 -39t-86 -20.5t-110.5 -9.5t-110.5 9.5t-86 20.5 t-64.5 39t-46 49.5t-31 66.5t-18.5 74.5t-10 91t-4 96.5zM252 1311l272 237l275 -237l-64 -76l-211 137l-211 -137zM324 297q0 -51 4 -75.5t20.5 -56.5t60.5 -44t115.5 -12t114.5 12t59.5 44t20.5 56.5t4 75.5v469q0 51 -4 75.5t-20.5 56.5t-59.5 44t-114.5 12t-115.5 -12 t-60.5 -44t-20.5 -56.5t-4 -75.5v-469z" />
<glyph unicode="&#xf5;" horiz-adv-x="1050" d="M154 422v221q0 119 10 167t22.5 93t31 66.5t46 49.5t64.5 39t86 20t110.5 9t110.5 -9t86 -20t65.5 -39t47 -49.5t31 -66.5t18.5 -73.5t10 -90t4 -96.5v-221q0 -119 -10 -168t-22.5 -94t-31 -66.5t-47 -49.5t-65.5 -39t-86 -20.5t-110.5 -9.5t-110.5 9.5t-86 20.5 t-64.5 39t-46 49.5t-31 66.5t-18.5 74.5t-10 91t-4 96.5zM256 1382q59 59 95 78t74 19t104.5 -28t111.5 -28t109 41l45 -78q-60 -59 -95.5 -77.5t-73.5 -18.5t-104.5 28t-111.5 28t-109 -41zM324 297q0 -51 4 -75.5t20.5 -56.5t60.5 -44t115.5 -12t114.5 12t59.5 44 t20.5 56.5t4 75.5v469q0 51 -4 75.5t-20.5 56.5t-59.5 44t-114.5 12t-115.5 -12t-60.5 -44t-20.5 -56.5t-4 -75.5v-469z" />
<glyph unicode="&#xf6;" horiz-adv-x="1050" d="M154 422v221q0 119 10 167t22.5 93t31 66.5t46 49.5t64.5 39t86 20t110.5 9t110.5 -9t86 -20t65.5 -39t47 -49.5t31 -66.5t18.5 -73.5t10 -90t4 -96.5v-221q0 -119 -10 -168t-22.5 -94t-31 -66.5t-47 -49.5t-65.5 -39t-86 -20.5t-110.5 -9.5t-110.5 9.5t-86 20.5 t-64.5 39t-46 49.5t-31 66.5t-18.5 74.5t-10 91t-4 96.5zM233 1346.5q0 56.5 6.5 78t24 30.5t31.5 11t45 2t45 -2t33 -12q29 -14 28.5 -70.5t-6.5 -78t-23.5 -30.5t-31.5 -11t-45 -2t-45 2t-33 10q-29 16 -29 72.5zM324 297q0 -51 4 -75.5t20.5 -56.5t60.5 -44t115.5 -12 t114.5 12t59.5 44t20.5 56.5t4 75.5v469q0 51 -4 75.5t-20.5 56.5t-59.5 44t-114.5 12t-115.5 -12t-60.5 -44t-20.5 -56.5t-4 -75.5v-469zM602 1346.5q0 56.5 6 78t23.5 30.5t32 11t45 2t45 -2t32.5 -12q29 -14 29 -70.5t-6 -78t-23.5 -30.5t-32 -11t-45 -2t-45 2t-32.5 10 q-29 16 -29 72.5z" />
<glyph unicode="&#xf7;" d="M123 578v143h778v-143h-778zM397 281q0 41 7.5 64.5t26 33.5t33.5 12t50 2t50.5 -2t33.5 -12t25.5 -33.5t7.5 -64.5t-7.5 -66t-25.5 -35t-33.5 -12t-50.5 -2t-50 2t-33.5 12t-26 35t-7.5 66zM397 1020q0 41 7.5 64.5t26 33.5t33.5 12.5t50 2.5t50.5 -2.5t33.5 -12.5 t25.5 -33.5t7.5 -64.5t-7.5 -65.5t-25.5 -35t-33.5 -12.5t-50.5 -2t-50 2t-33.5 12.5t-26 35t-7.5 65.5z" />
<glyph unicode="&#xf8;" horiz-adv-x="1050" d="M154 516v127q0 119 10 167t22.5 93t31 66.5t46 49.5t64.5 38q96 31 173 30.5t120 -6.5l36 138h93l-41 -158q154 -51 176 -246q12 -92 12 -225v-168q0 -119 -10 -168t-22.5 -94t-31 -66.5t-47 -49.5t-65.5 -40q-147 -43 -295 -22l-35 -136h-92l41 156q-152 51 -176 248 q-10 92 -10 266zM324 297q0 -78 13 -110.5t38 -49.5l213 813q-37 4 -86 4t-93 -12t-60.5 -44t-20.5 -56.5t-4 -75.5v-469zM459 111q18 -2 77.5 -2t102.5 12t59.5 44t20.5 56.5t4 75.5v469q0 78 -13.5 109.5t-37.5 48.5z" />
<glyph unicode="&#xf9;" horiz-adv-x="1058" d="M164 313v752h168v-774q0 -100 30.5 -141t146.5 -41t157 46t41 132v778h167v-1065h-92l-26 100q-39 -55 -101.5 -84.5t-106.5 -35t-120 -5.5t-133 27t-86 80q-45 86 -45 231zM313 1411l95 137l337 -278l-47 -70z" />
<glyph unicode="&#xfa;" horiz-adv-x="1058" d="M164 313v752h168v-774q0 -100 30.5 -141t146.5 -41t157 46t41 132v778h167v-1065h-92l-26 100q-39 -55 -101.5 -84.5t-106.5 -35t-120 -5.5t-133 27t-86 80q-45 86 -45 231zM354 1270l338 278l94 -137l-385 -211z" />
<glyph unicode="&#xfb;" horiz-adv-x="1058" d="M164 313v752h168v-774q0 -100 30.5 -141t146.5 -41t157 46t41 132v778h167v-1065h-92l-26 100q-39 -55 -101.5 -84.5t-106.5 -35t-120 -5.5t-133 27t-86 80q-45 86 -45 231zM256 1311l272 237l275 -237l-64 -76l-211 137l-211 -137z" />
<glyph unicode="&#xfc;" horiz-adv-x="1058" d="M164 313v752h168v-774q0 -100 30.5 -141t146.5 -41t157 46t41 132v778h167v-1065h-92l-26 100q-39 -55 -101.5 -84.5t-106.5 -35t-120 -5.5t-133 27t-86 80q-45 86 -45 231zM237.5 1346.5q0.5 56.5 6.5 78t23.5 30.5t31.5 11t45 2t45 -2t33 -12q29 -14 29 -70.5t-6.5 -78 t-24 -30.5t-31.5 -11t-45 -2t-45 2t-33 10q-29 16 -28.5 72.5zM606 1346.5q0 56.5 6 78t23.5 30.5t32 11t45 2t45 -2t33.5 -12q29 -14 28.5 -70.5t-6.5 -78t-23.5 -30.5t-32 -11t-45 -2t-45 2t-32.5 10q-29 16 -29 72.5z" />
<glyph unicode="&#xfd;" horiz-adv-x="929" d="M80 -369l37 119q55 -12 120.5 -12t113.5 36t71 128l22 98h-114l-248 1065h166l211 -954h12l211 954h166l-270 -1157q-35 -150 -112 -227.5t-245 -77.5q-78 0 -141 28zM291 1270l338 278l94 -137l-385 -211z" />
<glyph unicode="&#xfe;" horiz-adv-x="1052" d="M184 1475h158v-490q86 80 268.5 80t235.5 -105.5t53 -377.5q0 -238 -8 -292t-16.5 -98.5t-21.5 -68t-32.5 -52t-45 -43t-58.5 -28.5q-121 -51 -377 -2v-369h-154q-2 404 -2 1846zM352 131q113 -23 210 -22.5t131 39t34 153.5v451q0 100 -30.5 141t-146.5 41t-157 -46 t-41 -132v-625z" />
<glyph unicode="&#xff;" horiz-adv-x="929" d="M80 -369l37 119q55 -12 120.5 -12t113.5 36t71 128l22 98h-114l-248 1065h166l211 -954h12l211 954h166l-270 -1157q-35 -150 -112 -227.5t-245 -77.5q-78 0 -141 28zM174 1346.5q0 56.5 6 78t23.5 30.5t32 11t45 2t45 -2t30.5 -12q31 -14 31 -70.5t-6 -78t-23.5 -30.5 t-32 -11t-45 -2t-45 2t-30.5 10q-31 16 -31 72.5zM542.5 1346.5q0.5 56.5 6.5 78t23.5 30.5t31.5 11t45 2t45.5 -2t30.5 -12q31 -14 31 -70.5t-6.5 -78t-23.5 -30.5t-31.5 -11t-45.5 -2t-45 2t-31 10q-31 16 -30.5 72.5z" />
<glyph unicode="&#x152;" horiz-adv-x="1667" d="M154 685.5q0 197.5 2 275t15 179t40 141.5t78 84t128 56.5t189 12.5h959l-21 -144h-549q39 -70 51.5 -181.5t14.5 -317.5h442v-144h-442q-2 -215 -13.5 -324.5t-50.5 -179.5h588v-143h-979q-160 0 -287 45q-49 16 -79.5 66.5t-49 90.5t-26.5 134q-10 152 -10 349.5z M332 420q0 -164 33 -199q53 -55 114.5 -65.5t129 -10.5t115.5 8.5t77.5 29t47 39t23.5 57.5q11 49 11 141v594q0 164 -35 198q-51 55 -111.5 65.5t-128 10.5t-117 -8t-79 -28.5t-47 -39t-25.5 -57.5q-8 -49 -8 -141v-594z" />
<glyph unicode="&#x153;" horiz-adv-x="1552" d="M154 422v221q0 119 10 167t22.5 93t31 66.5t46 49.5t64.5 38q96 31 196 30q205 0 287 -92q82 92 294.5 92t278.5 -92q33 -49 44.5 -99t11.5 -114.5t-8.5 -106.5t-19.5 -73t-36.5 -54.5t-47 -39.5t-63.5 -27.5t-73 -17.5t-88 -10q-86 -6 -207 -7v-153q0 -106 45 -144 t137 -38q170 0 305 57l33 -102q-154 -90 -342 -90.5t-266 90.5q-80 -90 -285 -91q-100 0 -166.5 20.5t-94 48.5t-46 49.5t-31 66.5t-18.5 74.5t-10 91t-4 96.5zM324 297q0 -51 4 -75.5t20.5 -56.5t60.5 -44t115.5 -12t114.5 12t59.5 44t20.5 56.5t4 75.5v469q0 51 -4 75.5 t-20.5 56.5t-59.5 44t-114.5 12t-115.5 -12t-60.5 -44t-20.5 -56.5t-4 -75.5v-469zM897 563q209 0 249 15.5t71 31.5q55 29 55 113v47q0 100 -31 141t-146.5 41t-156.5 -46t-41 -132v-211z" />
<glyph unicode="&#x178;" horiz-adv-x="978" d="M51 1434h180l252 -781h13l252 781h180l-357 -973v-461h-163v461zM198.5 1643.5q0.5 56.5 6.5 78t23.5 30.5t31.5 11t45 2t45.5 -2t30.5 -10q31 -16 31 -72.5t-6.5 -78t-23.5 -30.5t-31.5 -11t-45.5 -2t-45 2t-31 12q-31 14 -30.5 70.5zM567 1643.5q0 56.5 6.5 78 t23.5 30.5t31.5 11t45.5 2t45 -2t31 -10q31 -16 30.5 -72.5t-6.5 -78t-23.5 -30.5t-31.5 -11t-45 -2t-45.5 2t-30.5 12q-31 14 -31 70.5z" />
<glyph unicode="&#x2c6;" horiz-adv-x="880" d="M168 1311l272 237l275 -237l-64 -76l-211 137l-211 -137z" />
<glyph unicode="&#x2dc;" horiz-adv-x="917" d="M203 1382q59 59 95 78t74 19t104.5 -28t111.5 -28t108 41l45 -78q-59 -59 -95 -77.5t-73.5 -18.5t-104.5 28t-112 28t-108 -41z" />
<glyph unicode="&#x2000;" horiz-adv-x="922" />
<glyph unicode="&#x2001;" horiz-adv-x="1845" />
<glyph unicode="&#x2002;" horiz-adv-x="922" />
<glyph unicode="&#x2003;" horiz-adv-x="1845" />
<glyph unicode="&#x2004;" horiz-adv-x="615" />
<glyph unicode="&#x2005;" horiz-adv-x="461" />
<glyph unicode="&#x2006;" horiz-adv-x="307" />
<glyph unicode="&#x2007;" horiz-adv-x="307" />
<glyph unicode="&#x2008;" horiz-adv-x="230" />
<glyph unicode="&#x2009;" horiz-adv-x="369" />
<glyph unicode="&#x200a;" horiz-adv-x="102" />
<glyph unicode="&#x2010;" horiz-adv-x="804" d="M82 547v133h641v-133h-641z" />
<glyph unicode="&#x2011;" horiz-adv-x="804" d="M82 547v133h641v-133h-641z" />
<glyph unicode="&#x2012;" horiz-adv-x="804" d="M82 547v133h641v-133h-641z" />
<glyph unicode="&#x2013;" horiz-adv-x="1212" d="M0 547v133h1212v-133h-1212z" />
<glyph unicode="&#x2014;" horiz-adv-x="1486" d="M0 547v133h1487v-133h-1487z" />
<glyph unicode="&#x2018;" horiz-adv-x="378" d="M61 1178q0 86 68 194l111 174l92 -49l-84 -211q47 -16 47 -108q0 -80 -33 -99q-27 -14 -73 -14t-61 2t-34 12q-33 18 -33 99z" />
<glyph unicode="&#x2019;" horiz-adv-x="378" d="M47 1071l84 211q-47 16 -47 109q0 80 33 98q27 14 73 14t61 -2t34 -12q33 -18 32 -98q0 -86 -67 -195l-111 -174z" />
<glyph unicode="&#x201a;" horiz-adv-x="491" d="M94 -229l84 211q-47 16 -47 108q0 80 33 98q27 14 73 14.5t61 -1.5t34 -13q33 -18 33 -98q0 -86 -68 -194l-111 -175z" />
<glyph unicode="&#x201c;" horiz-adv-x="727" d="M61 1178q0 86 68 194l111 174l92 -49l-84 -211q47 -16 47 -108q0 -80 -33 -99q-27 -14 -73 -14t-61 2t-34 12q-33 18 -33 99zM410 1178q0 86 67 194l111 174l92 -49l-84 -211q47 -16 47 -108q0 -80 -33 -99q-27 -14 -72.5 -14t-61 2t-34.5 12q-33 18 -32 99z" />
<glyph unicode="&#x201d;" horiz-adv-x="727" d="M47 1071l84 211q-47 16 -47 109q0 80 33 98q27 14 73 14t61 -2t34 -12q33 -18 32 -98q0 -86 -67 -195l-111 -174zM395 1071l84 211q-47 16 -47 109q0 80 33 98q27 14 73 14t61 -2t34 -12q33 -18 33 -98q0 -86 -68 -195l-111 -174z" />
<glyph unicode="&#x201e;" horiz-adv-x="727" d="M47 -229l84 211q-47 16 -47 108q0 80 33 98q27 14 73 14.5t61 -1.5t34 -13q33 -18 32 -98q0 -86 -67 -194l-111 -175zM395 -229l84 211q-47 16 -47 108q0 80 33 98q27 14 73 14.5t61 -1.5t34 -13q33 -18 33 -98q0 -86 -68 -194l-111 -175z" />
<glyph unicode="&#x2022;" horiz-adv-x="561" d="M123 616.5q0 55.5 9 88t35 46t47.5 16.5t67.5 3t66.5 -3t46 -16.5t34.5 -46t9 -88t-9 -88t-36 -45.5q-37 -20 -97 -20t-81.5 3t-47.5 16.5t-35 46t-9 88z" />
<glyph unicode="&#x2026;" horiz-adv-x="1474" d="M131 90q0 41 7 64.5t25.5 34t34 12.5t50.5 2t50 -2t33.5 -12.5t26 -34t7.5 -64.5t-7.5 -65.5t-26 -34.5t-33.5 -12.5t-50 -2.5t-50.5 2.5t-34 12.5t-25.5 34.5t-7 65.5zM623 90q0 41 7 64.5t25.5 34t34 12.5t50 2t50 -2t34 -12.5t25.5 -34t7 -64.5t-7 -65.5t-25.5 -34.5 t-34 -12.5t-50 -2.5t-50 2.5t-34 12.5t-25.5 34.5t-7 65.5zM1114 90q0 41 7 64.5t25.5 34t34 12.5t50.5 2t50 -2t33.5 -12.5t26 -34t7.5 -64.5t-7.5 -65.5t-26 -34.5t-33.5 -12.5t-50 -2.5t-50.5 2.5t-34 12.5t-25.5 34.5t-7 65.5z" />
<glyph unicode="&#x202f;" horiz-adv-x="369" />
<glyph unicode="&#x2039;" horiz-adv-x="491" d="M61 631l183 459l145 -25l-153 -434l153 -434l-145 -25z" />
<glyph unicode="&#x203a;" horiz-adv-x="491" d="M102 197l154 434l-154 434l146 25l182 -459l-182 -459z" />
<glyph unicode="&#x205f;" horiz-adv-x="461" />
<glyph unicode="&#x20ac;" d="M109 453v122h129v185h-129v123h131q10 242 93 353.5t320 111.5q145 0 297 -66l-37 -123q-123 43 -227 43t-149 -13t-69 -29.5t-34 -51.5q-16 -47 -16 -125v-100h379v-123h-379v-185h379v-122h-379v-113q0 -141 49 -176q63 -43 193.5 -43t252.5 43l37 -123 q-152 -66 -287 -66t-216.5 31t-124.5 97.5t-60.5 146.5t-21.5 203h-131z" />
<glyph unicode="&#x2122;" horiz-adv-x="1417" d="M84 1327v107h448v-107h-161v-694h-125v694h-162zM610 633l27 801h121l174 -467l174 467h121l26 -801h-116l-13 547l-143 -359h-98l-144 359l-12 -547h-117z" />
<glyph unicode="&#xe000;" horiz-adv-x="1064" d="M0 0v1065h1065v-1065h-1065z" />
<glyph unicode="&#xfb01;" horiz-adv-x="1193" d="M102 944v90l142 29q6 274 80 354q68 76 200 76q57 0 150 -16l-12 -107q-47 6 -82 6q-90 0 -129 -52t-39 -189v-70h192v-121h-192v-944h-168v944h-142zM819 1346.5q0 56.5 6 78t23.5 30.5t32 11t45 2t45 -2t33.5 -12q29 -14 28.5 -70.5t-6.5 -78t-23.5 -30.5t-32 -11 t-45 -2t-45 2t-32.5 10q-29 16 -29 72.5zM842 0v1065h168v-1065h-168z" />
<glyph unicode="&#xfb02;" horiz-adv-x="1193" d="M102 944v90l142 29q6 274 80 354q68 76 200 76q57 0 150 -16l-12 -107q-47 6 -82 6q-90 0 -129 -52t-39 -189v-70h192v-121h-192v-944h-168v944h-142zM842 0v1475h168v-1475h-168z" />
</font>
</defs>
</svg>
