<?xml version="1.0" encoding="utf-8"?>
<!-- Generator: Adobe Illustrator 19.1.0, SVG Export Plug-In . SVG Version: 6.00 Build 0)  -->
<!DOCTYPE svg PUBLIC "-//W3C//DTD SVG 1.1//EN" "http://www.w3.org/Graphics/SVG/1.1/DTD/svg11.dtd">
<svg version="1.1" id="santa" xmlns="http://www.w3.org/2000/svg" xmlns:xlink="http://www.w3.org/1999/xlink" x="0px" y="0px"
	 width="262.4px" height="417.6px" viewBox="0 0 262.4 417.6" style="enable-background:new 0 0 262.4 417.6;" xml:space="preserve"
	>
<style type="text/css">
	.st0{fill:#C41425;}
	.st1{opacity:0.7;fill:#C41425;}
	.st2{opacity:0.4;fill:#739E91;}
	.st3{fill:#414042;}
	.st4{fill:#F3F1E5;}
	.st5{fill:#EFBD98;}
	.st6{fill:url(#SVGID_1_);}
	.st7{fill:url(#SVGID_2_);}
	.st8{fill:#F8A07C;}
	.st9{fill:url(#beard_1_);}
	.st10{fill:#0D0D0D;}
	.st11{fill:#FFFFFF;}
	.st12{fill:#EEECDB;}
	.st13{fill:url(#SVGID_3_);}
	.st14{fill:#91090A;}
	.st15{fill:url(#SVGID_4_);}
	.st16{fill:#EBE8D5;}
	.st17{fill:#A71B28;}
</style>
<g>
	<path class="st0" d="M148.4,246.3c0,0,24.9-53.5,49.8,48.3c0,0-88.2-0.8-129-0.8c-14.2,0-25.7,7.4-29.3,20.3
		c0,0,5.1-27.4,55.4-65.5L148.4,246.3z"/>
</g>
<path class="st1" d="M90.7,270c2-2.4,0.3-5.4-1.3-7.4c-4.2-2.2-4.9-2.4-8.9-4.5c-1.1,1-2.6,2.1-3.7,3.1c7.6,4.3,7.4,3.5,12.2,6
	C89.7,268.1,90.3,269,90.7,270z"/>
<path class="st0" d="M152.6,264c-28.9,9.5-54.6,10.2-54.6,10.2c1-3.2,0.1-5.4-2.3-7.6c-2,3.6-4.9,3.4-5,3.4c0.6,1.5,0.8,3.2-0.4,4.6
	c0,0,2.9,0.3,5-3.4c2.4,2.1,3.3,4.4,2.3,7.6c0,0,25.7-0.7,54.6-10.2c1.7,5.5,5.5,5.3,5.5,5.3c-1.1-1.5-0.9-3.2-0.2-4.7
	C156.5,269.1,153.9,268.2,152.6,264z"/>
<path class="st2" d="M189.7,282.9c-0.9,0-1.6,2-4,2l-0.8,0c1.7,2.1,3.2,4.5,4.8,6.9c0.1,0.1,0.1,0.2,0.2,0.3
	c0.3,0.4,0.5,0.8,0.7,1.2c7.8,12.5,13.8,28.6,14,48.6c0,0.2,0,0.5,0,0.7c0,0.6,0,1.2,0,1.9c0,0.4,0,0.7,0,1.1c0,0.6,0,1.1-0.1,1.7
	c0,0.4,0,0.9-0.1,1.3c0,0.5-0.1,1.1-0.1,1.6c0,0.5-0.1,1-0.1,1.5c0,0.5-0.1,1-0.1,1.5c-0.1,0.6-0.1,1.1-0.2,1.7
	c0,0.5-0.1,0.9-0.2,1.4c0,0.4-0.1,0.7-0.1,1.1l-1-0.5l-2.6,10.1c0.4,0.2,2,1,4.5,1.9c-0.2,0.2-0.4,0.4-0.6,0.6
	c-0.5,0.5-1,1.1-1.4,1.8c-0.1,0.2-0.2,0.4-0.4,0.5c-3,5-2.8,10.6,0.4,12.5c0.8,0.5,1.8,0.7,2.9,0.7c1,0,2-0.4,3.1-0.9
	c-0.6,11.2,6.3,21.2,16.5,23.1c1.5,0.3,2.9,0.4,4.3,0.3c0,0,0.1,0,0.1,0c0.4,0,0.7-0.1,1.1-0.1c0.2,0,0.3,0,0.5-0.1
	c0.2,0,0.4-0.1,0.6-0.1c1.6-0.3,3.1-0.7,4.5-1.3c0,0,0,0,0,0c6.6-2.9,11.9-9.3,13.4-17.5c1.5-8.1-1-16-6-21c2-1.3,3.9-2.7,5.7-4.4
	l-3.7-9.6c-0.2,0.2-0.5,0.4-0.7,0.6c-2.2-11.6-10.3-40.6-38.6-69.6l-14.7,0.4l-1.4-2H189.7z"/>
<path class="st0" d="M158.7,255.5c0,0,60.8,30.4,48.1,103.5c0,0,26.1,12.8,42.7-3.4c0,0-4.7-62.8-81.7-107.3L158.7,255.5z"/>
<path class="st3" d="M206.4,380.8c1.7,1,3.8,0.8,5.9-0.3c-0.6,11.2,6.3,21.2,16.5,23.1c11.2,2.1,22.2-6.4,24.5-18.8
	c2.3-12.5-4.9-24.3-16.1-26.4c-6.8-1.3-13.5,1.3-18.3,6.4c-0.4-0.8-1-1.5-1.8-1.9c-3.2-1.9-8.3,0.5-11.3,5.5
	C203,373.3,203.2,378.9,206.4,380.8z"/>
<g>
	<path d="M228.3,368.1c-2.1,1.1-17.8-9.6-22.2,0.2c-2.4,5.3-2.8,10.6,0.4,12.5c1.7,1,3.8,0.8,5.9-0.3c-0.6,11.2,6.3,21.2,16.5,23.1
		c3.8,0.7,7.7,0.2,11.1-1.3C227.3,395.2,227.7,379.1,228.3,368.1z"/>
</g>
<path class="st4" d="M228.5,369c0.2,0.5-4.8-0.1-7.3-0.5c-9.3-1.3-16.4-4.7-17.3-5.1l2.6-10.1l2.5,1.1c0.1,0.1,9.7,3.2,20.4,2.8
	C229.4,357.2,228.3,366.2,228.5,369z"/>
<path class="st5" d="M227.1,178.1c-6,46.3-57.7,77.7-115.5,70.2c-57.8-7.5-99.8-51-93.8-97.3c6-46.3,57.7-77.7,115.5-70.2
	C191.1,88.3,233.1,131.9,227.1,178.1z"/>
<radialGradient id="SVGID_1_" cx="-185.2916" cy="558.7642" r="30.6442" gradientTransform="matrix(0.9147 0.1084 -0.1129 0.956 284.9281 -311.8736)" gradientUnits="userSpaceOnUse">
	<stop  offset="0" style="stop-color:#F59085"/>
	<stop  offset="0.2033" style="stop-color:#F49486"/>
	<stop  offset="0.5095" style="stop-color:#F1A08B"/>
	<stop  offset="0.8789" style="stop-color:#EFB595"/>
	<stop  offset="1" style="stop-color:#EFBD98"/>
</radialGradient>
<path class="st6" d="M95.5,206.3c2.3-19.2-15.7-37-40.2-39.9c-15.7-1.9-30.3,2.9-39.3,11.7c5.9,22.6,22.5,43.1,46,57.4
	C79.9,232.8,93.8,221.4,95.5,206.3z"/>
<radialGradient id="SVGID_2_" cx="-44.8078" cy="556.4772" r="30.6464" gradientTransform="matrix(0.9147 0.1084 -0.1129 0.956 284.9281 -311.8736)" gradientUnits="userSpaceOnUse">
	<stop  offset="0" style="stop-color:#F59085"/>
	<stop  offset="0.2033" style="stop-color:#F49486"/>
	<stop  offset="0.5095" style="stop-color:#F1A08B"/>
	<stop  offset="0.8789" style="stop-color:#EFB595"/>
	<stop  offset="1" style="stop-color:#EFBD98"/>
</radialGradient>
<path class="st7" d="M222.7,206.3c-5-13.6-19.9-24.6-38.6-26.9c-24.5-2.9-46.1,10.3-48.4,29.4c-1.9,16.3,10.8,31.6,29.6,37.7
	C190.3,239,210.7,224.8,222.7,206.3z"/>
<path id="ear_x5F_left" class="st5" d="M1.4,178.9c3.2,7.5,11,11.4,17.4,8.8c6.4-2.6,6.7-11.6,3.4-19.1c-3.2-7.5-8.8-10.6-15.2-8
	C0.7,163.2-1.8,171.4,1.4,178.9z"/>
<path id="ear_x5F_right" class="st5" d="M236.1,206.7c-5,6.4-13.5,8.3-19,4.2c-5.5-4.1-3.6-12.9,1.5-19.4c5-6.4,11.2-8.1,16.7-4
	C240.7,191.6,241.1,200.2,236.1,206.7z"/>
<path class="st8" d="M230.1,193.3c0.8,0.5,1.6,1.2,2.3,1.9c0.7,0.8,1.2,1.7,1.4,2.6c0.3,1,0.3,2,0.1,3c-0.2,1-0.6,2-1.1,2.9
	c0.6-0.8,1.2-1.8,1.6-2.8c0.4-1,0.5-2.2,0.4-3.3c-0.1-1.1-0.6-2.2-1.2-3.2c-0.6-1-1.4-1.9-2.4-2.6c-0.4-0.3-1-0.3-1.3,0.1
	c-0.3,0.4-0.2,1,0.2,1.3C230,193.2,230.1,193.2,230.1,193.3L230.1,193.3z"/>
<linearGradient id="beard_1_" gradientUnits="userSpaceOnUse" x1="67.3424" y1="325.7598" x2="67.3424" y2="264.932" gradientTransform="matrix(0.9913 0.1315 -0.1315 0.9913 84.9204 -62.5913)">
	<stop  offset="0" style="stop-color:#FFFFFF"/>
	<stop  offset="0.3703" style="stop-color:#FEFDFC"/>
	<stop  offset="0.6431" style="stop-color:#F9F8F3"/>
	<stop  offset="0.8839" style="stop-color:#F1F0E3"/>
	<stop  offset="1" style="stop-color:#ECEAD8"/>
</linearGradient>
<path id="beard" class="st9" d="M223.9,214.2c-2.6-0.5-3.4-3.1-3.6-5.4c9.8-22.6,8.9-43.6,8.9-43.6l-5.5,1.4
	c-4,14.7-19.4,52.1-39.4,48.5L50.4,200.3c-19.5-8.9-26.5-32.9-25.3-57.2l-5.1-3.1c0,0-18.3,47.8,13.9,84c-0.4,1-1,1.8-2.2,2.2
	c0,0,1.7,1.1,4.4,0.2c0.1,0.1,0.2,0.2,0.3,0.3c1,1,1.9,1.9,2.9,2.8c-0.4,0.9-1,1.7-2.1,2.1c0,0,1.4,0.9,3.6,0.4
	c-0.2,1.6-0.8,3.1-2.5,3.8c0,0,2.8,1.8,6.7-1.1c18.5,16.4,34.8,22.9,44.4,27.9c1.6,2,3.3,5,1.3,7.4c0,0,2.9,0.3,5-3.4
	c2.4,2.1,3.3,4.4,2.3,7.6c0,0,25.7-0.7,54.6-10.2c1.7,5.5,5.5,5.3,5.5,5.3c-2.1-2.9,0.7-6.4,2.5-8.2c5-1.9,13.4-5.6,18.4-8.1
	c1.8,2.4,4,2.3,4,2.3c-1-1.3-0.9-2.8-0.4-4.2c0.1,0,0.2-0.1,0.2-0.1c1.9,3.3,4.6,3.2,4.6,3.2c-1.5-2.1-0.5-4.5,0.8-6.3
	c1.8-1.1,1.7-1.3,3.5-2.5c11.1-7.8,17.8-16.8,23.5-26.5c2.8,1.8,5,0.7,5,0.7c-1.8-1-2.2-2.9-2-4.8
	C221.9,216.1,223.9,214.2,223.9,214.2z"/>
<path class="st10" d="M68.2,181.7c0.1-0.9,0.1-1.8-0.1-2.7c-0.5,0.6-1.3,0.9-2.2,0.7c-1.3-0.3-2.2-1.4-2.1-2.5
	c0.1-1,1.1-1.7,2.3-1.6c-0.4-0.3-0.9-0.6-1.5-0.7c-2.4-0.5-4.6,1.7-5,5c-0.4,3.2,1.2,6.2,3.6,6.7C65.6,187.2,67.8,185,68.2,181.7z"
	/>
<path class="st10" d="M181.7,195.6c0.2-0.9,0.2-1.8,0.1-2.7c-0.5,0.5-1.4,0.7-2.2,0.5c-1.2-0.4-2-1.6-1.8-2.7c0.2-1,1.3-1.6,2.4-1.3
	c-0.4-0.4-0.9-0.7-1.4-0.8c-2.3-0.7-4.8,1.3-5.5,4.4c-0.7,3.2,0.6,6.3,2.9,7C178.5,200.7,181,198.8,181.7,195.6z"/>
<path class="st11" d="M43.2,174.4c0,0,0-0.2,0-0.6c0-0.4,0.1-0.9,0.3-1.6c0.2-0.7,0.4-1.4,0.8-2.2c0.4-0.8,0.9-1.7,1.5-2.6
	c0.3-0.4,0.7-0.9,1.1-1.3c0.4-0.4,0.8-0.8,1.3-1.3c0.5-0.4,1-0.8,1.5-1.2c0.6-0.3,1.1-0.7,1.8-1c1.3-0.5,2.7-0.9,4.1-1
	c1.4-0.2,2.9-0.3,4.3-0.3c0.7-0.1,1.4,0,2.1,0c0.7,0,1.4,0.1,2.1,0.1c1.4,0.2,2.7,0.5,3.9,0.7c1.2,0.4,2.4,0.8,3.5,1.2
	c1.1,0.4,2,1,2.9,1.4c0.9,0.4,1.7,0.9,2.3,1.3c0.7,0.4,1.2,0.8,1.7,1.2c0.9,0.7,1.4,1,1.4,1l-0.4,0.8c0,0-0.6-0.1-1.7-0.4
	c-0.5-0.1-1.2-0.3-1.9-0.4c-0.7-0.2-1.6-0.3-2.5-0.4c-0.9-0.1-1.8-0.3-2.9-0.3c-1,0-2.1,0-3.1-0.1c-1.1,0.1-2.1,0.2-3.3,0.3
	c-0.5,0.1-1.1,0.2-1.6,0.3c-0.5,0.1-1.1,0.2-1.6,0.4c-0.5,0.2-1,0.3-1.5,0.6c-0.5,0.2-1,0.5-1.4,0.8c-0.5,0.3-0.9,0.5-1.3,0.8
	c-0.4,0.3-0.9,0.5-1.3,0.7c-0.5,0.2-0.9,0.4-1.3,0.6c-0.4,0.2-0.9,0.3-1.3,0.5c-0.9,0.3-1.8,0.6-2.6,0.9c-0.8,0.2-1.6,0.5-2.4,0.7
	c-0.7,0.2-1.4,0.4-2,0.5c-0.3,0.1-0.6,0.1-0.8,0.2c-0.2,0.1-0.4,0.1-0.6,0.1c-0.4,0.1-0.5,0.1-0.5,0.1L43.2,174.4z"/>
<path class="st11" d="M197.3,191.6c0,0-0.2-0.1-0.5-0.2c-0.2-0.1-0.4-0.1-0.6-0.2c-0.2-0.1-0.5-0.2-0.8-0.3
	c-0.5-0.2-1.2-0.5-1.9-0.8c-0.7-0.3-1.5-0.7-2.3-1c-0.8-0.4-1.6-0.8-2.4-1.2c-0.4-0.2-0.9-0.4-1.3-0.6c-0.4-0.2-0.8-0.5-1.2-0.8
	c-0.4-0.3-0.8-0.6-1.2-0.9c-0.4-0.4-0.8-0.6-1.2-1c-0.4-0.3-0.8-0.7-1.3-1c-0.5-0.3-1-0.5-1.4-0.8c-0.5-0.3-1-0.4-1.5-0.6
	c-0.5-0.2-1-0.4-1.6-0.6c-1.1-0.3-2.1-0.5-3.2-0.8c-1.1-0.2-2.1-0.2-3.1-0.4c-1-0.1-2,0-2.9-0.1c-0.9,0-1.8-0.1-2.5,0.1
	c-0.7,0.1-1.4,0.1-1.9,0.2c-1.1,0.1-1.7,0.1-1.7,0.1l-0.3-0.8c0,0,0.6-0.3,1.6-0.8c0.5-0.3,1.1-0.6,1.8-0.9c0.7-0.4,1.6-0.7,2.5-1
	c0.9-0.3,2-0.7,3.1-1c1.1-0.2,2.3-0.5,3.6-0.7c1.3-0.1,2.6-0.2,4-0.1c0.7,0.1,1.4,0.1,2.1,0.2c0.7,0.1,1.4,0.1,2.1,0.3
	c1.4,0.3,2.8,0.5,4.2,1c1.4,0.3,2.7,0.9,3.9,1.6c0.6,0.3,1.1,0.8,1.6,1.2c0.5,0.4,1,0.9,1.4,1.4c0.4,0.5,0.8,1,1.1,1.4
	c0.3,0.5,0.6,1,0.9,1.5c0.6,0.9,0.9,1.9,1.2,2.7c0.3,0.9,0.4,1.6,0.5,2.3c0.1,0.7,0.1,1.2,0.1,1.6c0,0.4-0.1,0.6-0.1,0.6
	L197.3,191.6z"/>
<path class="st12" d="M153.7,249.1c0,0-1.2,1.1-3.3,2.4c-1,0.6-2.2,1.3-3.6,2c-0.7,0.3-1.4,0.6-2.1,0.9c-0.7,0.3-1.5,0.6-2.2,0.8
	c-1.5,0.6-3,1.1-4.4,1.6c-1.4,0.5-2.8,0.9-3.9,1.3c-2.3,0.7-3.9,1.1-3.9,1.1c-0.1,0-0.1,0-0.1-0.1c0,0,0-0.1,0.1-0.1
	c0,0,1.5-0.6,3.7-1.5c1.1-0.5,2.3-1.1,3.7-1.7c1.3-0.6,2.8-1.3,4.2-2c1.4-0.7,2.8-1.5,4.2-2.1c0.7-0.3,1.3-0.6,2-0.8
	c0.6-0.2,1.2-0.5,1.8-0.7c2.3-0.8,3.9-1.1,3.9-1.1C153.6,248.9,153.7,249,153.7,249.1C153.7,249.1,153.7,249.1,153.7,249.1z"/>
<path id="hair_x5F_lock" class="st4" d="M138.8,164c0,0-14.6-19.9-4.5-28.9l-44.8,4.4c0,0,0.5,1.7,2,4.2l-27.7,2.7
	c0,0,7.2,23.7,46.4,30.3c0,0-4.3-1.7-10.5-11.3c0,0,17.7,14.3,36.2,4.3c0,0-4.3-1.7-10.5-11.3C125.5,158.6,129.9,163.5,138.8,164z"
	/>
<path class="st12" d="M51.5,228.8c0,0,1.5,1,3.5,2.7c0.5,0.4,1,0.9,1.6,1.3c0.6,0.5,1.2,1,1.8,1.5c0.6,0.6,1.2,1.1,1.8,1.7
	c0.6,0.6,1.3,1.2,1.9,1.7c0.7,0.5,1.3,1.1,2,1.6c0.7,0.5,1.3,1.1,2,1.5c0.7,0.5,1.3,0.9,1.9,1.3c0.6,0.4,1.2,0.8,1.8,1.1
	c0.6,0.3,1.1,0.6,1.5,0.9c0.5,0.3,0.9,0.4,1.2,0.6c0.7,0.3,1.1,0.5,1.1,0.5l0,0c0,0,0.1,0.1,0,0.1c0,0-0.1,0.1-0.1,0.1
	c0,0-0.4-0.1-1.1-0.4c-0.4-0.1-0.8-0.3-1.3-0.5c-0.5-0.2-1.1-0.5-1.7-0.7c-0.6-0.3-1.2-0.6-1.9-0.9c-0.7-0.3-1.4-0.8-2.1-1.2
	c-0.7-0.4-1.4-0.9-2.2-1.4c-0.7-0.5-1.4-1-2.2-1.5c-1.4-1-2.9-2.1-4.1-3.2c-1.2-1.1-2.3-2.3-3.1-3.3c-1.7-2-2.5-3.7-2.5-3.7
	c0-0.1,0-0.1,0-0.1C51.4,228.8,51.4,228.8,51.5,228.8z"/>
<path id="moustache" class="st11" d="M205.4,214.2c-21.4-0.1-22.2-10.4-47.3-22.1c-25.1-11.8-37.5,7.8-37.5,7.8s-8.3-22.1-35.5-16.7
	c-27.2,5.4-30.1,15.2-50.9,10.1l0,0c0,0,3.6,6.9,11.1,14.2c-3.6,1.2-7.1,0.1-7.1,0.1c3.6,3.1,8.4,4.1,11.4,4.4
	c-0.7,1.9-2.1,3.3-2.1,3.3c3.4,0.8,5.7,0.4,7.1-0.3c13.8,9.2,34.9,14.8,63.9,0.5l0,0c20.4,17.3,38.9,20,53.5,17.2
	c1.2,0.9,3.2,2,6.7,2c0,0-0.7-1.2-1-2.8c2.1,0.4,6.2,0.8,9.7-1c0,0-2.5,0.1-4.8-1.3C196.8,224,205.4,214.2,205.4,214.2z"/>
<radialGradient id="SVGID_3_" cx="-82.4335" cy="-175.4879" r="20.7904" gradientTransform="matrix(0.9983 5.860000e-02 -5.860000e-02 0.9983 191.8702 383.8492)" gradientUnits="userSpaceOnUse">
	<stop  offset="0.1529" style="stop-color:#FDD6B7"/>
	<stop  offset="0.254" style="stop-color:#FDD0B3"/>
	<stop  offset="0.3996" style="stop-color:#FBC2A9"/>
	<stop  offset="0.5722" style="stop-color:#F8A999"/>
	<stop  offset="0.7655" style="stop-color:#F58984"/>
	<stop  offset="0.9736" style="stop-color:#F15D6D"/>
	<stop  offset="1" style="stop-color:#F0566A"/>
</radialGradient>
<path class="st13" d="M136.2,195.5c-0.3,5.2-7.6,8.9-16.3,8.4c-8.7-0.5-15.5-5.1-15.2-10.3c0.3-5.2,7.6-8.9,16.3-8.4
	C129.7,185.7,136.5,190.3,136.2,195.5z"/>
<path class="st14" d="M101.1,209.1c0,0,0.1,0.4,0.3,1.2c0.2,0.7,0.6,1.8,1.2,2.9c0.3,0.6,0.6,1.2,1.1,1.8c0.4,0.6,0.9,1.2,1.4,1.8
	c0.5,0.6,1.2,1.1,1.8,1.5c0.7,0.5,1.4,0.8,2.1,1.2c0.8,0.3,1.5,0.5,2.3,0.6c0.4,0.1,0.8,0.1,1.2,0.1c0.4,0,0.8,0.1,1.2,0.1
	c0.8,0.1,1.5,0.1,2.2,0.1c0.7,0,1.4,0,2,0c0.6,0,1.2,0,1.8,0c0.5,0,1,0,1.4,0c0.8,0,1.2,0,1.2,0l0.1,0.2c0,0-0.4,0.2-1.1,0.6
	c-0.4,0.2-0.8,0.4-1.3,0.6c-0.5,0.2-1.1,0.4-1.8,0.6c-0.7,0.2-1.4,0.3-2.2,0.4c-0.8,0.1-1.6,0.1-2.5,0c-0.9-0.1-1.8-0.3-2.7-0.5
	c-0.9-0.3-1.8-0.6-2.6-1.1c-0.8-0.5-1.6-1-2.3-1.6c-0.7-0.6-1.3-1.2-1.9-1.9c-1.1-1.4-1.8-2.8-2.2-4.1c-0.5-1.3-0.7-2.4-0.8-3.1
	c-0.1-0.8-0.1-1.2-0.1-1.2L101.1,209.1z"/>
<path class="st12" d="M141.3,196.2c0,0,0.4-0.2,1.2-0.3c0.4-0.1,0.9-0.1,1.4-0.1c0.6,0,1.2,0,1.9,0c1.4,0.1,3,0.3,4.6,0.8
	c0.8,0.3,1.6,0.6,2.4,1c0.8,0.4,1.6,0.8,2.4,1.2c0.8,0.4,1.6,0.8,2.3,1.3c0.7,0.5,1.5,0.9,2.2,1.4c0.7,0.5,1.4,1,2,1.4
	c0.6,0.5,1.2,0.9,1.7,1.4c1.1,0.8,1.8,1.6,2.4,2.1c0.6,0.5,0.9,0.8,0.9,0.8c0,0,0,0.1,0,0.1c0,0-0.1,0-0.1,0l0,0c0,0-0.4-0.3-1-0.7
	c-0.3-0.2-0.7-0.5-1.1-0.8c-0.4-0.3-0.9-0.7-1.5-1c-0.6-0.4-1.2-0.7-1.8-1.2c-0.7-0.4-1.3-0.8-2.1-1.2c-0.7-0.4-1.5-0.8-2.2-1.2
	c-0.8-0.4-1.6-0.7-2.4-1.1c-0.8-0.3-1.6-0.6-2.4-0.9c-0.8-0.2-1.6-0.5-2.4-0.7c-0.8-0.2-1.5-0.5-2.2-0.7c-0.7-0.2-1.4-0.4-2-0.6
	c-0.6-0.1-1.2-0.3-1.7-0.4c-0.5-0.1-1-0.2-1.4-0.3c-0.8-0.2-1.2-0.2-1.2-0.2C141.2,196.4,141.2,196.3,141.3,196.2
	C141.2,196.3,141.2,196.2,141.3,196.2z"/>
<path class="st12" d="M101.2,190.5c0,0-0.4-0.1-1.2-0.3c-0.4-0.1-0.8-0.2-1.4-0.3c-0.5-0.1-1.1-0.2-1.8-0.3c-0.3-0.1-0.7-0.1-1-0.1
	c-0.3,0-0.7-0.1-1.1-0.1c-0.4,0-0.8,0-1.2-0.1c-0.4,0-0.8,0-1.2,0c-0.8-0.1-1.7,0-2.5-0.1c-0.9,0-1.7,0.1-2.6,0.2
	c-0.9,0.2-1.8,0.3-2.6,0.5c-0.8,0.2-1.7,0.4-2.5,0.7c-0.8,0.3-1.6,0.6-2.3,0.8c-0.7,0.3-1.4,0.6-2,0.9c-0.6,0.3-1.2,0.5-1.7,0.8
	c-0.5,0.3-0.9,0.5-1.2,0.7c-0.7,0.4-1.1,0.6-1.1,0.6l0,0c0,0-0.1,0-0.1,0c0,0,0-0.1,0-0.1c0,0,0.4-0.3,1-0.7
	c0.3-0.2,0.7-0.5,1.2-0.8c0.4-0.3,1-0.7,1.6-1c0.6-0.4,1.2-0.7,1.9-1.1c0.7-0.3,1.5-0.7,2.3-1.1c0.8-0.4,1.7-0.6,2.5-1
	c0.9-0.3,1.8-0.5,2.7-0.8c0.9-0.2,1.9-0.4,2.8-0.5c0.9-0.1,1.8-0.2,2.7-0.2c0.4,0,0.9,0,1.3,0.1c0.4,0.1,0.8,0.1,1.2,0.2
	c0.8,0.1,1.5,0.4,2.2,0.6c1.3,0.5,2.4,1.1,3.1,1.5c0.7,0.5,1,0.8,1,0.8c0,0,0,0.1,0,0.1C101.2,190.5,101.2,190.5,101.2,190.5z"/>
<path class="st12" d="M141.7,215c0,0,0.1,0.1,0.2,0.4c0.2,0.2,0.4,0.6,0.7,0.9c0.3,0.4,0.7,0.8,1.2,1.3c0.5,0.5,1.1,1,1.8,1.5
	c0.3,0.3,0.7,0.5,1.1,0.8c0.4,0.2,0.8,0.5,1.2,0.8c0.9,0.4,1.7,1,2.7,1.4c0.5,0.2,0.9,0.5,1.4,0.7c0.5,0.2,1,0.4,1.5,0.6
	c1,0.5,2.1,0.8,3.2,1.1l0.8,0.3l0.8,0.2c0.6,0.1,1.1,0.3,1.7,0.4c1.1,0.3,2.2,0.4,3.3,0.6c1.1,0.2,2.1,0.3,3.1,0.4
	c1,0.1,1.9,0.2,2.8,0.3c0.9,0.1,1.7,0.1,2.4,0.1c0.7,0,1.3,0.1,1.9,0.1c1,0,1.6,0.1,1.6,0.1l0,0c0.1,0,0.1,0,0.1,0.1
	c0,0.1,0,0.1-0.1,0.1c0,0-0.6,0-1.6,0.1c-0.5,0-1.1,0.1-1.9,0.1c-0.7,0-1.5,0.1-2.4,0.1c-0.9,0-1.8,0-2.9,0c-1,0-2.1-0.1-3.2-0.2
	c-1.1-0.1-2.3-0.2-3.4-0.4c-0.6-0.1-1.2-0.2-1.7-0.3l-0.9-0.1l-0.9-0.2c-1.2-0.3-2.3-0.5-3.5-0.9c-0.6-0.2-1.1-0.4-1.7-0.6
	c-0.5-0.2-1.1-0.5-1.6-0.7c-1-0.5-2-1.1-2.8-1.7c-0.8-0.7-1.6-1.3-2.2-2c-0.7-0.6-1.2-1.3-1.6-1.9c-0.4-0.6-0.7-1.2-0.9-1.7
	c-0.2-0.5-0.3-0.9-0.4-1.2c-0.1-0.3-0.1-0.4-0.1-0.4l0,0c0-0.1,0-0.1,0.1-0.1C141.6,214.9,141.7,214.9,141.7,215z"/>
<path class="st12" d="M192.3,218c0,0-1,0.8-2.6,1.7c-0.8,0.5-1.8,0.9-2.9,1.4c-0.5,0.2-1.1,0.4-1.7,0.6c-0.6,0.2-1.2,0.3-1.8,0.5
	c-0.6,0.2-1.2,0.3-1.8,0.4c-0.6,0.1-1.2,0.2-1.8,0.3c-0.6,0-1.2,0.1-1.7,0.1c-0.5,0-1.1,0-1.5-0.1c-0.5,0-0.9-0.1-1.3-0.1
	c-0.4-0.1-0.7-0.1-1-0.2c-0.5-0.1-0.8-0.2-0.8-0.2c0,0,0,0,0-0.1c0,0,0,0,0,0c0,0,0.3,0,0.9-0.1c0.3,0,0.6,0,1,0
	c0.4,0,0.8-0.1,1.3-0.1c0.5,0,1,0,1.5-0.1c0.5-0.1,1.1-0.1,1.6-0.1c1.1-0.1,2.4-0.2,3.6-0.4c0.6-0.1,1.2-0.2,1.8-0.4
	c0.6-0.1,1.2-0.3,1.7-0.5c1.1-0.4,2.1-0.7,2.9-1.1C191.2,218.6,192.2,217.9,192.3,218C192.2,217.9,192.3,217.9,192.3,218
	C192.3,217.9,192.3,218,192.3,218z"/>
<path class="st12" d="M62.8,213.2c0,0-0.4,0.1-1,0.1c-0.3,0-0.7,0-1.1-0.1c-0.4,0-0.9-0.1-1.5-0.2c-0.5-0.1-1.1-0.3-1.7-0.5
	c-0.6-0.2-1.2-0.5-1.8-0.8c-0.6-0.4-1.2-0.7-1.8-1.1c-0.6-0.4-1.2-0.8-1.7-1.3c-0.6-0.5-1.1-0.9-1.6-1.4c-0.5-0.5-1-1-1.4-1.5
	c-0.4-0.5-0.9-1-1.3-1.4c-0.4-0.5-0.7-0.9-1-1.4c-0.7-0.8-1.1-1.6-1.5-2.1c-0.3-0.5-0.5-0.8-0.5-0.8c0,0,0-0.1,0-0.1
	c0,0,0.1,0,0.1,0c0,0,0.2,0.3,0.6,0.8c0.4,0.5,0.9,1.2,1.6,2c0.3,0.4,0.7,0.8,1.1,1.3c0.4,0.4,0.9,0.9,1.3,1.4
	c0.4,0.5,1,0.9,1.5,1.4c0.5,0.5,1.1,0.9,1.6,1.3c0.5,0.4,1.1,0.8,1.7,1.2c0.6,0.4,1.2,0.7,1.7,1c0.6,0.3,1.1,0.6,1.7,0.8
	c0.5,0.3,1.1,0.5,1.5,0.6C61.4,212.9,62.8,213.1,62.8,213.2C62.8,213.1,62.8,213.1,62.8,213.2C62.8,213.1,62.8,213.2,62.8,213.2z"/>
<path class="st12" d="M75.9,237.1c0,0,0.2,0.2,0.6,0.5c0.2,0.2,0.4,0.4,0.6,0.6c0.2,0.2,0.5,0.5,0.8,0.8c0.5,0.6,1.2,1.3,1.8,2.1
	c0.6,0.8,1.2,1.8,1.8,2.6c0.3,0.4,0.7,0.8,1,1.3c0.3,0.4,0.7,0.8,1,1.2c0.4,0.4,0.7,0.7,1,1.1c0.3,0.4,0.6,0.7,0.9,0.9
	c1.2,1.1,2.1,1.8,2.1,1.8l0,0c0,0,0,0.1,0,0.1c0,0-0.1,0-0.1,0c0,0-1-0.6-2.4-1.4c-0.7-0.4-1.5-1.1-2.3-1.7
	c-0.4-0.3-0.8-0.7-1.2-1.1c-0.4-0.4-0.8-0.8-1.2-1.1c-0.4-0.4-0.8-0.8-1.2-1.2c-0.4-0.4-0.8-0.8-1.1-1.2c-0.3-0.4-0.6-0.9-0.8-1.3
	c-0.3-0.4-0.5-0.8-0.6-1.2c-0.4-0.8-0.6-1.5-0.7-2c-0.1-0.5-0.2-0.8-0.2-0.8v0C75.7,237.2,75.8,237.1,75.9,237.1
	C75.9,237.1,75.9,237.1,75.9,237.1z"/>
<path class="st8" d="M11.5,166.7c-0.9,0.3-1.8,0.8-2.6,1.4c-0.8,0.6-1.5,1.4-2,2.2c-0.5,0.9-0.7,1.9-0.8,2.9c0,1,0.2,2.1,0.5,3.1
	c-0.5-1-0.8-2-0.9-3.1c-0.1-1.1,0-2.2,0.4-3.3c0.4-1.1,1.1-2.1,1.9-2.9c0.8-0.8,1.8-1.5,2.9-2.1c0.5-0.2,1,0,1.2,0.4
	c0.2,0.4,0,1-0.4,1.2C11.6,166.6,11.6,166.7,11.5,166.7L11.5,166.7z"/>
<path class="st2" d="M63.6,302c-1.8,0.8-3.9,0.3-5.8-1.1c-0.9,11.2-9.1,20.2-19.5,20.7c-11.4,0.6-21.2-9.3-21.8-22
	c-0.6-12.7,6-23,19.5-24c19.4-1.8,27.4,8.7,29.7,14C68,295,67.1,300.5,63.6,302z"/>
<path class="st3" d="M65.8,297.2c-1.8,0.8-3.9,0.3-5.8-1.1c-0.9,11.2-9.1,20.2-19.5,20.7c-11.4,0.6-21.2-9.3-21.8-22
	c-0.6-12.7,6-23,19.5-24c19.4-1.8,27.4,8.7,29.7,14C70.2,290.2,69.3,295.7,65.8,297.2z"/>
<path class="st0" d="M165.2,259.3c-1.8,0.8-3.5,1.4-4.6,1.9c-1.7,1.7-4.3,4.9-2.8,7.7c0.7-1.2,1.6-2.3,2.4-3c2-0.8,5.4-2.1,9.1-3.6
	c16.9,12.7,46.8,43.5,37.5,96.9c0,0,12.2,6,25.3,4.6c-1.5-0.3-2.4-0.6-2.4-0.6c0.9-51.3-26.8-91.6-47.4-105.5
	c-0.2-0.1-0.4-0.3-0.8-0.5c-1.8-1.3-4.4-2.9-4.4-2.9c-1.3,0.7-4.3,2-6.1,2.8L165.2,259.3z"/>
<path class="st11" d="M249.4,349.7l3.7,9.6c-8,7.8-19,10.9-31.9,9.2c-9.3-1.3-16.4-4.7-17.3-5.1l2.6-10.1l2.5,1.1
	C209.3,354.5,235.6,363.1,249.4,349.7z"/>
<g id="hat">
	<g>
		<g id="capuche">
			
				<radialGradient id="SVGID_4_" cx="158.4216" cy="70.2511" r="21.9409" gradientTransform="matrix(0.9913 0.1315 -0.1315 0.9913 84.9204 -62.5913)" gradientUnits="userSpaceOnUse">
				<stop  offset="0" style="stop-color:#FFFFFF"/>
				<stop  offset="0.3386" style="stop-color:#FDFCFA"/>
				<stop  offset="0.7217" style="stop-color:#F6F5ED"/>
				<stop  offset="1" style="stop-color:#EFEDDE"/>
			</radialGradient>
			<path class="st15" d="M250.1,38.8c0.9-7.7-1.4-15.1-6-20.8c0.6-0.5,1.9-1.9,2-3c0,0-2,1-3.5,1.2l0.6-2.7c0,0-0.8,0.9-1.9,1.6
				c0,0-0.1,0-0.1-0.1c0.7-1.8,0.2-4,0.2-4c-1,0.8-2.4,1-3.5,1c0.6-2.2,0.5-4.3,0.5-4.3c-1.2,1.3-2.5,2.2-3.6,2.8
				c-3.2-1.7-6.7-2.8-10.4-3.3c-16.1-2-30.6,9-32.5,24.4c-0.5,4-0.1,7.9,1.1,11.6c-0.8,0.4-2.4,0.9-3.4,1.2c0,0,2.3,0.7,4.2,1.2
				c-0.5,0.7-1.1,1.3-1.8,1.6c0,0,1.6,1.3,3.4,1.6c4.4,7.6,12.4,13.2,22.1,14.4c3.9,0.5,7.8,0.2,11.4-0.8c0.2,0.7,0.6,1.6,1.5,2.2
				c0,0,0.2-1.4,0.7-2.8l2.2,1.7c0,0-0.5-1-0.7-2.3C241.9,57.5,248.8,49.2,250.1,38.8z"/>
			<g>
				<path class="st16" d="M236.9,54.3c-9.7-1.2-17.7-6.8-22.1-14.4c-1.8-0.3-3.4-1.6-3.4-1.6c0.7-0.3,1.3-0.9,1.8-1.6
					c-2-0.5-3.5-1.3-3.5-1.3c1-0.3,1.8-0.7,2.6-1.1c-1.2-3.6-1.6-7.6-1.1-11.6c0.7-6.1,3.5-11.5,7.5-15.7
					c-13.6,0.9-25.1,11-26.7,24.6c-0.5,4-0.1,7.9,1.1,11.6c-0.8,0.4-2.5,0.9-3.5,1.2c0,0,2.4,0.6,4.4,1.1c-0.5,0.7-1.1,1.3-1.8,1.6
					c0,0,1.6,1.3,3.4,1.6c4.4,7.6,12.4,13.2,22.1,14.4c3.9,0.5,7.8,0.2,11.4-0.8c0.2,0.7,0.6,1.6,1.5,2.2c0,0,0.2-1.4,0.7-2.8
					l3.2,2.7c0,0-1.4-2-1.7-3.3c3.8-1.5,7.1-3.9,9.9-6.7C240.8,54.6,238.9,54.6,236.9,54.3z"/>
			</g>
			<path class="st0" d="M30,116.5c0,0,23-51.7,111.9-61.9c69.5-7.9,74.8-14.2,79.7-21.5c0,0,3.2-1.3,3.4,1.2c0,0-5.8,14.5-14.9,27.3
				c-9.9,13.9-5,31.4,5,45.4c12.2,16.9,12.3,31.1,12.3,31.1S117.1,158.4,30,116.5z"/>
			<path class="st17" d="M146.9,67.9c65.6-17.7,71.9-26.2,74.4-34.4c-4.8,7-11.6,13.2-79.3,20.9C53.1,64.5,30.1,116.2,30.1,116.2
				c9.1,4.4,53.2,3.1,62.7,6.2C89.1,106.9,118.5,75.5,146.9,67.9z"/>
			<path class="st11" d="M40.1,112.3c-7.3-1.1-4.6-5-4.6-5s-2-2.8-5.6,0.3c0,0-16.8,19-16.7,49c0,8.7,70.2-6.6,106.4-2.7
				c36.1,3.9,97,34.2,110.2,30.3c13.2-3.9,2.5-51.2,2.5-51.2c-1.9-5-6-2.5-6-2.5s1.3,5.2-6.4,3.4C125.8,106.5,40.1,112.3,40.1,112.3
				z"/>
			<g>
				<path class="st12" d="M226,184.8c-2.2-0.1-5-0.6-8.4-1.5c-22.8-5.7-69.3-26.2-98.1-29.3c-27.4-3-74.4,5.1-95.5,5.4
					c-3.7,0-6.4-0.1-8.3-0.6l-0.5,5.3c2.3,0.2,5.9,0.2,9.5,0.1c22.4-1,66.2-8.1,92.2-5.3c28.9,3.2,75.6,23.8,98.3,29.4
					c3.9,1,7.1,1.5,9.4,1.4c0.7,0,1.4-0.1,1.9-0.3c0.3-1.6,0.7-3.1,0.9-4.6C227,184.8,226.5,184.8,226,184.8z"/>
			</g>
			<path class="st4" d="M93.7,112.8c-30.8-1.6-53.6-0.5-53.6-0.5c-7.3-1.1-4.6-5-4.6-5s-2-2.8-5.6,0.3c0,0-16.8,19-16.7,49
				c0,6.1,36.5,0.3,69.5-2.3C82.7,154.4,82.8,127,93.7,112.8z"/>
		</g>
	</g>
</g>
</svg>
